<svg width="52" height="47" viewBox="0 0 52 47" fill="none" xmlns="http://www.w3.org/2000/svg">
<path id="Vector" d="M6.33754 22.8438C5.26669 21.78 4.41825 20.5138 3.84168 19.1189C3.2651 17.7239 2.97192 16.2282 2.97921 14.7188C2.97921 11.666 4.19191 8.73833 6.35053 6.57971C8.50915 4.42108 11.4369 3.20838 14.4896 3.20838C18.7688 3.20838 22.5063 5.53755 24.4834 9.00422H27.5167C28.5218 7.24125 29.9762 5.77612 31.7317 4.75803C33.4872 3.73993 35.4811 3.20524 37.5105 3.20838C40.5632 3.20838 43.4909 4.42108 45.6496 6.57971C47.8082 8.73833 49.0209 11.666 49.0209 14.7188C49.0209 17.8875 47.6667 20.8125 45.6625 22.8438L26 42.4792L6.33754 22.8438ZM47.5584 24.7667C50.1313 22.1667 51.7292 18.6459 51.7292 14.7188C51.7292 10.9478 50.2312 7.33116 47.5646 4.66462C44.8981 1.99809 41.2815 0.500049 37.5105 0.500049C32.7709 0.500049 28.573 2.80213 26 6.37713C24.6868 4.55307 22.9575 3.06841 20.9557 2.04631C18.9539 1.02422 16.7373 0.494138 14.4896 0.500049C10.7186 0.500049 7.10198 1.99809 4.43545 4.66462C1.76892 7.33116 0.270874 10.9478 0.270874 14.7188C0.270874 18.6459 1.86879 22.1667 4.44171 24.7667L26 46.325L47.5584 24.7667Z" fill="#19D019"/>
</svg>
