<svg width="64" height="65" viewBox="0 0 64 65" fill="none" xmlns="http://www.w3.org/2000/svg">
<g id="icon">
<g id="Group">
<path id="Vector" fill-rule="evenodd" clip-rule="evenodd" d="M32 54.1C43.9292 54.1 53.6 44.4292 53.6 32.5C53.6 20.5708 43.9292 10.9 32 10.9C20.0708 10.9 10.4 20.5708 10.4 32.5C10.4 44.4292 20.0708 54.1 32 54.1ZM32 56.5C45.2552 56.5 56 45.7552 56 32.5C56 19.2448 45.2552 8.5 32 8.5C18.7448 8.5 8 19.2448 8 32.5C8 45.7552 18.7448 56.5 32 56.5Z" fill="#19D019"/>
<path id="Vector_2" fill-rule="evenodd" clip-rule="evenodd" d="M44.804 23.2115C45.0401 23.4248 45.1818 23.7231 45.198 24.0408C45.2142 24.3585 45.1036 24.6697 44.8904 24.9059L28.8632 42.6191L19.172 33.3683C18.9544 33.1459 18.8317 32.8477 18.8297 32.5365C18.8278 32.2254 18.9468 31.9256 19.1616 31.7005C19.3764 31.4755 19.6703 31.3426 19.9812 31.33C20.2921 31.3174 20.5957 31.4261 20.828 31.6331L28.736 39.1811L43.1108 23.2967C43.2166 23.1798 43.3444 23.0849 43.4869 23.0174C43.6293 22.9499 43.7837 22.9111 43.9412 22.9033C44.0987 22.8955 44.2561 22.9188 44.4046 22.9719C44.553 23.025 44.6896 23.1068 44.8064 23.2127" fill="#19D019"/>
</g>
</g>
</svg>
