<svg width="80" height="80" viewBox="0 0 80 80" fill="none" xmlns="http://www.w3.org/2000/svg">
<g id="SuperShyft - Logo [Final]-03 1" clip-path="url(#clip0_491_1103)">
<g id="Group">
<path id="Vector" d="M0.525879 40.0594C1.23699 4.72609 43.5111 -12.7406 68.5185 12.452C75.6518 19.7409 79.6963 29.8891 79.5037 40.0594H78.2444C78.1851 25.3928 68.6074 11.4446 54.9407 6.18535C36.6296 -1.24428 15.0148 7.9335 7.86662 26.3705C6.14069 30.7187 5.30366 35.4002 5.37032 40.0594H0.525879Z" fill="white"/>
<path id="Vector_2" d="M79.4741 39.9409C78.763 75.2743 36.4889 92.7409 11.4815 67.5483C4.35557 60.2594 0.303721 50.1113 0.496314 39.9409H1.75557C1.81483 54.6076 11.3926 68.5557 25.0593 73.815C43.3704 81.2446 64.9852 72.0668 72.1334 53.6298C73.8593 49.2817 74.6963 44.6002 74.6296 39.9409H79.4741Z" fill="white"/>
</g>
<g id="Group_2">
<g id="Group_3">
<path id="Vector_3" d="M19.2148 29.9854C19.3926 29.9854 19.4815 30.0742 19.4815 30.252V31.3928C19.4815 31.5705 19.3926 31.6594 19.2148 31.6594H14.4074C14.1778 31.6594 14.0148 31.7187 13.9185 31.8372C13.8222 31.9557 13.7778 32.1187 13.7778 32.3261V32.7335C13.7778 33.1779 13.9852 33.4076 14.4 33.4076H17.6963C18.3926 33.4076 18.9185 33.5854 19.2667 33.9409C19.6148 34.2965 19.7926 34.8076 19.7926 35.4668V36.4298C19.7926 37.015 19.6222 37.4816 19.2741 37.8446C18.9334 38.2076 18.3926 38.3854 17.6667 38.3854H12.2222C12.0371 38.3854 11.9482 38.2965 11.9482 38.1187V36.9779C11.9482 36.8002 12.0371 36.7113 12.2222 36.7113H17.3185C17.5482 36.7113 17.7111 36.652 17.8074 36.5335C17.9037 36.415 17.9482 36.252 17.9482 36.0446V35.5557C17.9482 35.1113 17.7408 34.8816 17.3259 34.8816H14.0296C13.3333 34.8816 12.8074 34.7039 12.4593 34.3483C12.1037 33.9928 11.9333 33.4816 11.9333 32.8224V31.9483C11.9333 31.3631 12.1037 30.8965 12.4519 30.5335C12.7926 30.1705 13.3333 29.9928 14.0593 29.9928H19.2148V29.9854Z" fill="white"/>
<path id="Vector_4" d="M21.9631 31.793C22.1409 31.793 22.2297 31.8819 22.2297 32.067V35.5337C22.2297 35.793 22.2446 36.0004 22.2742 36.1707C22.3038 36.3411 22.3631 36.4745 22.452 36.5707C22.5409 36.6745 22.6668 36.7411 22.8223 36.7856C22.9853 36.83 23.1927 36.8522 23.4594 36.8522H25.3409C25.6075 36.8522 25.8223 36.83 25.9853 36.7856C26.1557 36.7411 26.289 36.667 26.3853 36.5707C26.4816 36.4745 26.5557 36.3337 26.5927 36.1707C26.6297 36.0004 26.652 35.793 26.652 35.5337V32.0744C26.652 31.8893 26.7409 31.8004 26.9186 31.8004H28.0964C28.2742 31.8004 28.3631 31.8893 28.3631 32.0744V35.9633C28.3631 36.393 28.3186 36.7633 28.2223 37.0744C28.126 37.3856 27.9705 37.6374 27.7483 37.83C27.526 38.0226 27.2372 38.1707 26.8668 38.2522C26.4964 38.3411 26.0446 38.3856 25.5112 38.3856H23.3631C22.8223 38.3856 22.3631 38.3411 22.0001 38.2522C21.6372 38.1633 21.3409 38.0226 21.126 37.83C20.9038 37.6374 20.7483 37.3856 20.652 37.0744C20.5557 36.7633 20.5112 36.4004 20.5112 35.9633V32.0744C20.5112 31.8893 20.6001 31.8004 20.7853 31.8004H21.9631V31.793Z" fill="white"/>
<path id="Vector_5" d="M34.6964 31.793C35.2297 31.793 35.6816 31.8374 36.052 31.9337C36.4223 32.0226 36.7112 32.1707 36.9334 32.3633C37.1557 32.5559 37.3112 32.8078 37.4075 33.1189C37.5038 33.43 37.5483 33.793 37.5483 34.23V35.9559C37.5483 36.3856 37.5038 36.7559 37.4075 37.067C37.3112 37.3782 37.1557 37.63 36.9334 37.8226C36.7112 38.0152 36.4223 38.1633 36.052 38.2448C35.6816 38.3337 35.2297 38.3782 34.6964 38.3782H30.9186V40.7633C30.9186 40.9411 30.8297 41.03 30.652 41.03H29.4816C29.2964 41.03 29.2075 40.9411 29.2075 40.7633V34.23C29.2075 33.8004 29.252 33.43 29.3483 33.1189C29.4446 32.8078 29.6001 32.5559 29.8223 32.3633C30.0446 32.1707 30.3334 32.0226 30.6964 31.9337C31.0594 31.8448 31.5112 31.793 32.0594 31.793H34.6964ZM30.9186 36.9411H34.526C34.7927 36.9411 35.0075 36.9189 35.1705 36.8819C35.3409 36.8448 35.4742 36.7707 35.5705 36.667C35.6668 36.5633 35.7409 36.43 35.7779 36.2596C35.8149 36.0893 35.8371 35.8819 35.8371 35.6226V34.5559C35.8371 34.3115 35.8149 34.0967 35.7779 33.9263C35.7409 33.7559 35.6668 33.6152 35.5705 33.5189C35.4668 33.4226 35.3334 33.3485 35.1705 33.3041C35.0001 33.2596 34.7853 33.2374 34.526 33.2374H32.2223C31.9631 33.2374 31.7557 33.2596 31.5853 33.3041C31.4149 33.3485 31.2816 33.4226 31.1853 33.5189C31.0816 33.6226 31.0149 33.7559 30.9779 33.9263C30.9409 34.0967 30.9186 34.3115 30.9186 34.5559V36.9411Z" fill="white"/>
<path id="Vector_6" d="M43.7927 31.793C44.2001 31.793 44.5408 31.83 44.8075 31.8967C45.0741 31.9633 45.289 32.0744 45.4445 32.23C45.6001 32.3856 45.7112 32.593 45.7778 32.8448C45.8445 33.0967 45.8741 33.4004 45.8741 33.7633V34.9041C45.8741 35.1633 45.8149 35.3411 45.7038 35.4374C45.5927 35.5411 45.4223 35.5856 45.1853 35.5856H40.089V35.8744C40.089 36.2522 40.1778 36.5189 40.3556 36.6893C40.5334 36.8596 40.8815 36.9411 41.4075 36.9411H45.4445C45.5853 36.9411 45.6593 37.0152 45.6593 37.1559V38.1633C45.6593 38.3041 45.5853 38.3782 45.4445 38.3782H41.2371C40.6964 38.3782 40.2371 38.3337 39.8741 38.2448C39.5112 38.1559 39.2149 38.0152 39.0001 37.8226C38.7778 37.63 38.6223 37.3782 38.526 37.067C38.4297 36.7559 38.3853 36.393 38.3853 35.9559V34.23C38.3853 33.8004 38.4297 33.43 38.526 33.1189C38.6223 32.8078 38.7778 32.5559 39.0001 32.3633C39.2223 32.1707 39.5112 32.0226 39.8741 31.9337C40.2371 31.8448 40.689 31.793 41.2371 31.793H43.7927ZM40.089 34.5189H43.9853C44.1186 34.5189 44.1927 34.4522 44.1927 34.3115V33.8078C44.1927 33.5633 44.1408 33.3856 44.0371 33.2819C43.9334 33.1782 43.7408 33.1263 43.4593 33.1263H41.4075C40.889 33.1263 40.5408 33.2078 40.3556 33.3707C40.1778 33.5337 40.089 33.8078 40.089 34.193V34.5189Z" fill="white"/>
<path id="Vector_7" d="M51.7185 31.7926C51.8593 31.7926 51.9333 31.8666 51.9333 32.0074V33.0148C51.9333 33.1555 51.8593 33.2296 51.7185 33.2296H49.6074C49.3482 33.2296 49.1408 33.2518 48.9704 33.2963C48.8 33.3407 48.6667 33.4148 48.5704 33.5111C48.4667 33.6148 48.4 33.7481 48.363 33.9185C48.3259 34.0889 48.3037 34.3037 48.3037 34.5481V38.1111C48.3037 38.2889 48.2148 38.3777 48.0371 38.3777H46.8593C46.6741 38.3777 46.5852 38.2889 46.5852 38.1111V34.2222C46.5852 33.7926 46.6296 33.4222 46.7259 33.1111C46.8222 32.8 46.9778 32.5481 47.2 32.3555C47.4222 32.1629 47.7111 32.0148 48.0741 31.9259C48.4371 31.837 48.8889 31.7852 49.4371 31.7852H51.7185V31.7926Z" fill="white"/>
</g>
<path id="Vector_8" d="M40.3703 41.3037C40.5481 41.3037 40.637 41.3926 40.637 41.5704V42.7111C40.637 42.8889 40.5481 42.9778 40.3703 42.9778H35.5629C35.3333 42.9778 35.1703 43.037 35.0741 43.1556C34.9778 43.2741 34.9333 43.437 34.9333 43.6445V44.0519C34.9333 44.4963 35.1407 44.7259 35.5555 44.7259H38.8518C39.5481 44.7259 40.0741 44.9037 40.4222 45.2593C40.7703 45.6148 40.9481 46.1259 40.9481 46.7852V47.7482C40.9481 48.3333 40.7778 48.8 40.4296 49.163C40.0889 49.5259 39.5481 49.7037 38.8222 49.7037H33.3778C33.1926 49.7037 33.1037 49.6148 33.1037 49.437V48.2963C33.1037 48.1185 33.1926 48.0296 33.3778 48.0296H38.4741C38.7037 48.0296 38.8666 47.9704 38.9629 47.8519C39.0592 47.7333 39.1037 47.5704 39.1037 47.363V46.8741C39.1037 46.4296 38.8963 46.2 38.4815 46.2H35.1852C34.4889 46.2 33.9629 46.0222 33.6148 45.6667C33.2592 45.3111 33.0889 44.8 33.0889 44.1408V43.2593C33.0889 42.6741 33.2592 42.2074 33.6074 41.8445C33.9481 41.4815 34.4889 41.3037 35.2148 41.3037H40.3703Z" fill="white"/>
<path id="Vector_9" d="M43.2224 40.7041C43.4001 40.7041 43.489 40.793 43.489 40.9708V43.1189H46.7705C47.3038 43.1189 47.7557 43.1634 48.1261 43.2597C48.4964 43.3485 48.7853 43.4967 49.0075 43.6893C49.2298 43.8819 49.3853 44.1337 49.4816 44.4448C49.5779 44.756 49.6224 45.1189 49.6224 45.556V49.4448C49.6224 49.6226 49.5335 49.7115 49.3557 49.7115H48.1779C48.0001 49.7115 47.9112 49.6226 47.9112 49.4448V45.9708C47.9112 45.7263 47.8964 45.5115 47.8668 45.3411C47.8372 45.1708 47.7705 45.03 47.6816 44.9337C47.5927 44.8374 47.4668 44.7634 47.3038 44.7189C47.1409 44.6745 46.9335 44.6522 46.6816 44.6522H43.4816V49.4522C43.4816 49.63 43.3927 49.7189 43.215 49.7189H42.0372C41.8594 49.7189 41.7705 49.63 41.7705 49.4522V40.9708C41.7705 40.793 41.8594 40.7041 42.0372 40.7041H43.2224Z" fill="white"/>
<path id="Vector_10" d="M56.7184 43.1187C56.8073 43.1187 56.8666 43.1483 56.8888 43.2075C56.9184 43.2668 56.911 43.3409 56.874 43.4149L54.3036 50.5409C54.0444 51.2594 53.4962 51.8372 52.7999 52.1409C52.7999 52.1409 52.7925 52.1409 52.7925 52.1483C52.5036 52.2816 52.0962 52.3483 51.5777 52.3483H50.7407C50.6221 52.3483 50.5258 52.252 50.5258 52.1335V51.1483C50.5258 51.0298 50.6221 50.9335 50.7407 50.9335H51.4518C51.7555 50.9335 52.1999 50.8446 52.3036 50.6594L52.711 49.5187C52.511 49.5038 52.3555 49.452 52.2518 49.3779C52.1407 49.2964 52.0444 49.1705 51.9481 49.0075L49.911 43.4224C49.874 43.3409 49.8666 43.2742 49.8962 43.215C49.9258 43.1557 49.9851 43.1261 50.0666 43.1261H51.4444C51.5777 43.1261 51.674 43.1853 51.7333 43.2964L53.1925 47.9112C53.2592 48.0224 53.3036 48.0964 53.3407 48.1335C53.3777 48.1705 53.4221 48.1853 53.4814 48.1853L55.0962 43.289C55.1555 43.1779 55.2444 43.1187 55.3851 43.1187H56.7184Z" fill="white"/>
<path id="Vector_11" d="M58.9999 43.1186V42.8667C58.9999 42.4445 59.037 42.0815 59.111 41.7778C59.1851 41.4815 59.311 41.2297 59.4962 41.0371C59.6814 40.8445 59.9259 40.7037 60.237 40.6149C60.5481 40.526 60.9481 40.4741 61.4222 40.4741H62.511C62.6518 40.4741 62.7259 40.5482 62.7259 40.6889V41.6741C62.7259 41.8149 62.6518 41.8889 62.511 41.8889H61.711C61.3184 41.8889 61.0518 41.9704 60.911 42.126C60.7703 42.2815 60.7036 42.526 60.7036 42.8667V43.1186H62.4444C62.5851 43.1186 62.6592 43.1926 62.6592 43.3334V44.3186C62.6592 44.4593 62.5851 44.5334 62.4444 44.5334H60.7036V49.4371C60.7036 49.6149 60.6147 49.7037 60.437 49.7037H59.2592C59.0814 49.7037 58.9925 49.6149 58.9925 49.4371V44.5334H57.8518C57.711 44.5334 57.637 44.4593 57.637 44.3186V43.3334C57.637 43.1926 57.711 43.1186 57.8518 43.1186H58.9999Z" fill="white"/>
<path id="Vector_12" d="M64.6815 43.1185V41.5333C64.6815 41.3555 64.7704 41.2666 64.9481 41.2666H66.1333C66.3111 41.2666 66.4 41.3555 66.4 41.5333V43.1185H67.7778C67.9185 43.1185 67.9926 43.1925 67.9926 43.3333V44.3185C67.9926 44.4592 67.9185 44.5333 67.7778 44.5333H66.4V47.3185C66.4 47.6518 66.4667 47.9036 66.6074 48.0592C66.7407 48.2148 67.0074 48.2962 67.4074 48.2962H67.8519C67.9926 48.2962 68.0667 48.3703 68.0667 48.511V49.4814C68.0667 49.6222 67.9926 49.6962 67.8519 49.6962H67.1185C66.637 49.6962 66.2444 49.6518 65.9333 49.5629C65.6222 49.474 65.3704 49.3333 65.1852 49.1407C65 48.9481 64.8667 48.7036 64.7926 48.3999C64.7185 48.0962 64.6815 47.7333 64.6815 47.311V44.5259H63.5407C63.4 44.5259 63.3259 44.4518 63.3259 44.311V43.3333C63.3259 43.1925 63.4 43.1185 63.5407 43.1185H64.6815Z" fill="white"/>
</g>
<g id="Group_4">
<path id="Vector_13" d="M68.5185 12.4518C43.5408 -12.7186 1.33335 4.68884 0.533351 39.9407H0.496314C0.303721 50.1111 4.35557 60.2592 11.4815 67.5481C36.4593 92.7185 78.6667 75.3185 79.4667 40.0592H79.4963C79.6963 29.8888 75.6445 19.7407 68.5185 12.4518ZM72.1334 53.6296C64.9852 72.074 43.3704 81.2444 25.0593 73.8148C11.4296 68.5703 1.86668 54.6814 1.75557 40.0592H5.3778C5.30372 35.3999 6.14817 30.7259 7.87409 26.3777C15.0222 7.93328 36.6371 -1.23709 54.9482 6.19254C68.5778 11.437 78.1408 25.3259 78.2519 39.9481H74.6297C74.6963 44.5999 73.8593 49.274 72.1334 53.6296Z" fill="#CC203B"/>
</g>
<g id="Group_5">
<g id="Group_6">
<path id="Vector_14" d="M19.2148 29.9854C19.3926 29.9854 19.4815 30.0742 19.4815 30.252V31.3928C19.4815 31.5705 19.3926 31.6594 19.2148 31.6594H14.4074C14.1778 31.6594 14.0148 31.7187 13.9185 31.8372C13.8222 31.9557 13.7778 32.1187 13.7778 32.3261V32.7335C13.7778 33.1779 13.9852 33.4076 14.4 33.4076H17.6963C18.3926 33.4076 18.9185 33.5854 19.2667 33.9409C19.6148 34.2965 19.7926 34.8076 19.7926 35.4668V36.4298C19.7926 37.015 19.6222 37.4816 19.2741 37.8446C18.9334 38.2076 18.3926 38.3854 17.6667 38.3854H12.2222C12.0371 38.3854 11.9482 38.2965 11.9482 38.1187V36.9779C11.9482 36.8002 12.0371 36.7113 12.2222 36.7113H17.3185C17.5482 36.7113 17.7111 36.652 17.8074 36.5335C17.9037 36.415 17.9482 36.252 17.9482 36.0446V35.5557C17.9482 35.1113 17.7408 34.8816 17.3259 34.8816H14.0296C13.3333 34.8816 12.8074 34.7039 12.4593 34.3483C12.1037 33.9928 11.9333 33.4816 11.9333 32.8224V31.9483C11.9333 31.3631 12.1037 30.8965 12.4519 30.5335C12.7926 30.1705 13.3333 29.9928 14.0593 29.9928H19.2148V29.9854Z" fill="#CC203B"/>
<path id="Vector_15" d="M21.9631 31.793C22.1409 31.793 22.2297 31.8819 22.2297 32.067V35.5337C22.2297 35.793 22.2446 36.0004 22.2742 36.1707C22.3038 36.3411 22.3631 36.4745 22.452 36.5707C22.5409 36.6745 22.6668 36.7411 22.8223 36.7856C22.9853 36.83 23.1927 36.8522 23.4594 36.8522H25.3409C25.6075 36.8522 25.8223 36.83 25.9853 36.7856C26.1557 36.7411 26.289 36.667 26.3853 36.5707C26.4816 36.4745 26.5557 36.3337 26.5927 36.1707C26.6297 36.0004 26.652 35.793 26.652 35.5337V32.0744C26.652 31.8893 26.7409 31.8004 26.9186 31.8004H28.0964C28.2742 31.8004 28.3631 31.8893 28.3631 32.0744V35.9633C28.3631 36.393 28.3186 36.7633 28.2223 37.0744C28.126 37.3856 27.9705 37.6374 27.7483 37.83C27.526 38.0226 27.2372 38.1707 26.8668 38.2522C26.4964 38.3411 26.0446 38.3856 25.5112 38.3856H23.3631C22.8223 38.3856 22.3631 38.3411 22.0001 38.2522C21.6372 38.1633 21.3409 38.0226 21.126 37.83C20.9038 37.6374 20.7483 37.3856 20.652 37.0744C20.5557 36.7633 20.5112 36.4004 20.5112 35.9633V32.0744C20.5112 31.8893 20.6001 31.8004 20.7853 31.8004H21.9631V31.793Z" fill="#CC203B"/>
<path id="Vector_16" d="M34.6964 31.793C35.2297 31.793 35.6816 31.8374 36.052 31.9337C36.4223 32.0226 36.7112 32.1707 36.9334 32.3633C37.1557 32.5559 37.3112 32.8078 37.4075 33.1189C37.5038 33.43 37.5483 33.793 37.5483 34.23V35.9559C37.5483 36.3856 37.5038 36.7559 37.4075 37.067C37.3112 37.3782 37.1557 37.63 36.9334 37.8226C36.7112 38.0152 36.4223 38.1633 36.052 38.2448C35.6816 38.3337 35.2297 38.3782 34.6964 38.3782H30.9186V40.7633C30.9186 40.9411 30.8297 41.03 30.652 41.03H29.4816C29.2964 41.03 29.2075 40.9411 29.2075 40.7633V34.23C29.2075 33.8004 29.252 33.43 29.3483 33.1189C29.4446 32.8078 29.6001 32.5559 29.8223 32.3633C30.0446 32.1707 30.3334 32.0226 30.6964 31.9337C31.0594 31.8448 31.5112 31.793 32.0594 31.793H34.6964ZM30.9186 36.9411H34.526C34.7927 36.9411 35.0075 36.9189 35.1705 36.8819C35.3409 36.8448 35.4742 36.7707 35.5705 36.667C35.6668 36.5633 35.7409 36.43 35.7779 36.2596C35.8149 36.0893 35.8371 35.8819 35.8371 35.6226V34.5559C35.8371 34.3115 35.8149 34.0967 35.7779 33.9263C35.7409 33.7559 35.6668 33.6152 35.5705 33.5189C35.4668 33.4226 35.3334 33.3485 35.1705 33.3041C35.0001 33.2596 34.7853 33.2374 34.526 33.2374H32.2223C31.9631 33.2374 31.7557 33.2596 31.5853 33.3041C31.4149 33.3485 31.2816 33.4226 31.1853 33.5189C31.0816 33.6226 31.0149 33.7559 30.9779 33.9263C30.9409 34.0967 30.9186 34.3115 30.9186 34.5559V36.9411Z" fill="#CC203B"/>
<path id="Vector_17" d="M43.7927 31.793C44.2001 31.793 44.5408 31.83 44.8075 31.8967C45.0741 31.9633 45.289 32.0744 45.4445 32.23C45.6001 32.3856 45.7112 32.593 45.7778 32.8448C45.8445 33.0967 45.8741 33.4004 45.8741 33.7633V34.9041C45.8741 35.1633 45.8149 35.3411 45.7038 35.4374C45.5927 35.5411 45.4223 35.5856 45.1853 35.5856H40.089V35.8744C40.089 36.2522 40.1778 36.5189 40.3556 36.6893C40.5334 36.8596 40.8815 36.9411 41.4075 36.9411H45.4445C45.5853 36.9411 45.6593 37.0152 45.6593 37.1559V38.1633C45.6593 38.3041 45.5853 38.3782 45.4445 38.3782H41.2371C40.6964 38.3782 40.2371 38.3337 39.8741 38.2448C39.5112 38.1559 39.2149 38.0152 39.0001 37.8226C38.7778 37.63 38.6223 37.3782 38.526 37.067C38.4297 36.7559 38.3853 36.393 38.3853 35.9559V34.23C38.3853 33.8004 38.4297 33.43 38.526 33.1189C38.6223 32.8078 38.7778 32.5559 39.0001 32.3633C39.2223 32.1707 39.5112 32.0226 39.8741 31.9337C40.2371 31.8448 40.689 31.793 41.2371 31.793H43.7927ZM40.089 34.5189H43.9853C44.1186 34.5189 44.1927 34.4522 44.1927 34.3115V33.8078C44.1927 33.5633 44.1408 33.3856 44.0371 33.2819C43.9334 33.1782 43.7408 33.1263 43.4593 33.1263H41.4075C40.889 33.1263 40.5408 33.2078 40.3556 33.3707C40.1778 33.5337 40.089 33.8078 40.089 34.193V34.5189Z" fill="#CC203B"/>
<path id="Vector_18" d="M51.7185 31.7926C51.8593 31.7926 51.9333 31.8666 51.9333 32.0074V33.0148C51.9333 33.1555 51.8593 33.2296 51.7185 33.2296H49.6074C49.3482 33.2296 49.1408 33.2518 48.9704 33.2963C48.8 33.3407 48.6667 33.4148 48.5704 33.5111C48.4667 33.6148 48.4 33.7481 48.363 33.9185C48.3259 34.0889 48.3037 34.3037 48.3037 34.5481V38.1111C48.3037 38.2889 48.2148 38.3777 48.0371 38.3777H46.8593C46.6741 38.3777 46.5852 38.2889 46.5852 38.1111V34.2222C46.5852 33.7926 46.6296 33.4222 46.7259 33.1111C46.8222 32.8 46.9778 32.5481 47.2 32.3555C47.4222 32.1629 47.7111 32.0148 48.0741 31.9259C48.4371 31.837 48.8889 31.7852 49.4371 31.7852H51.7185V31.7926Z" fill="#CC203B"/>
</g>
<path id="Vector_19" d="M40.3703 41.3037C40.5481 41.3037 40.637 41.3926 40.637 41.5704V42.7111C40.637 42.8889 40.5481 42.9778 40.3703 42.9778H35.5629C35.3333 42.9778 35.1703 43.037 35.0741 43.1556C34.9778 43.2741 34.9333 43.437 34.9333 43.6445V44.0519C34.9333 44.4963 35.1407 44.7259 35.5555 44.7259H38.8518C39.5481 44.7259 40.0741 44.9037 40.4222 45.2593C40.7703 45.6148 40.9481 46.1259 40.9481 46.7852V47.7482C40.9481 48.3333 40.7778 48.8 40.4296 49.163C40.0889 49.5259 39.5481 49.7037 38.8222 49.7037H33.3778C33.1926 49.7037 33.1037 49.6148 33.1037 49.437V48.2963C33.1037 48.1185 33.1926 48.0296 33.3778 48.0296H38.4741C38.7037 48.0296 38.8666 47.9704 38.9629 47.8519C39.0592 47.7333 39.1037 47.5704 39.1037 47.363V46.8741C39.1037 46.4296 38.8963 46.2 38.4815 46.2H35.1852C34.4889 46.2 33.9629 46.0222 33.6148 45.6667C33.2592 45.3111 33.0889 44.8 33.0889 44.1408V43.2593C33.0889 42.6741 33.2592 42.2074 33.6074 41.8445C33.9481 41.4815 34.4889 41.3037 35.2148 41.3037H40.3703Z" fill="#CC203B"/>
<path id="Vector_20" d="M43.2224 40.7041C43.4001 40.7041 43.489 40.793 43.489 40.9708V43.1189H46.7705C47.3038 43.1189 47.7557 43.1634 48.1261 43.2597C48.4964 43.3485 48.7853 43.4967 49.0075 43.6893C49.2298 43.8819 49.3853 44.1337 49.4816 44.4448C49.5779 44.756 49.6224 45.1189 49.6224 45.556V49.4448C49.6224 49.6226 49.5335 49.7115 49.3557 49.7115H48.1779C48.0001 49.7115 47.9112 49.6226 47.9112 49.4448V45.9708C47.9112 45.7263 47.8964 45.5115 47.8668 45.3411C47.8372 45.1708 47.7705 45.03 47.6816 44.9337C47.5927 44.8374 47.4668 44.7634 47.3038 44.7189C47.1409 44.6745 46.9335 44.6522 46.6816 44.6522H43.4816V49.4522C43.4816 49.63 43.3927 49.7189 43.215 49.7189H42.0372C41.8594 49.7189 41.7705 49.63 41.7705 49.4522V40.9708C41.7705 40.793 41.8594 40.7041 42.0372 40.7041H43.2224Z" fill="#CC203B"/>
<path id="Vector_21" d="M56.7184 43.1187C56.8073 43.1187 56.8666 43.1483 56.8888 43.2075C56.9184 43.2668 56.911 43.3409 56.874 43.4149L54.3036 50.5409C54.0444 51.2594 53.4962 51.8372 52.7999 52.1409C52.7999 52.1409 52.7925 52.1409 52.7925 52.1483C52.5036 52.2816 52.0962 52.3483 51.5777 52.3483H50.7407C50.6221 52.3483 50.5258 52.252 50.5258 52.1335V51.1483C50.5258 51.0298 50.6221 50.9335 50.7407 50.9335H51.4518C51.7555 50.9335 52.1999 50.8446 52.3036 50.6594L52.711 49.5187C52.511 49.5038 52.3555 49.452 52.2518 49.3779C52.1407 49.2964 52.0444 49.1705 51.9481 49.0075L49.911 43.4224C49.874 43.3409 49.8666 43.2742 49.8962 43.215C49.9258 43.1557 49.9851 43.1261 50.0666 43.1261H51.4444C51.5777 43.1261 51.674 43.1853 51.7333 43.2964L53.1925 47.9112C53.2592 48.0224 53.3036 48.0964 53.3407 48.1335C53.3777 48.1705 53.4221 48.1853 53.4814 48.1853L55.0962 43.289C55.1555 43.1779 55.2444 43.1187 55.3851 43.1187H56.7184Z" fill="#CC203B"/>
<path id="Vector_22" d="M58.9999 43.1186V42.8667C58.9999 42.4445 59.037 42.0815 59.111 41.7778C59.1851 41.4815 59.311 41.2297 59.4962 41.0371C59.6814 40.8445 59.9259 40.7037 60.237 40.6149C60.5481 40.526 60.9481 40.4741 61.4222 40.4741H62.511C62.6518 40.4741 62.7259 40.5482 62.7259 40.6889V41.6741C62.7259 41.8149 62.6518 41.8889 62.511 41.8889H61.711C61.3184 41.8889 61.0518 41.9704 60.911 42.126C60.7703 42.2815 60.7036 42.526 60.7036 42.8667V43.1186H62.4444C62.5851 43.1186 62.6592 43.1926 62.6592 43.3334V44.3186C62.6592 44.4593 62.5851 44.5334 62.4444 44.5334H60.7036V49.4371C60.7036 49.6149 60.6147 49.7037 60.437 49.7037H59.2592C59.0814 49.7037 58.9925 49.6149 58.9925 49.4371V44.5334H57.8518C57.711 44.5334 57.637 44.4593 57.637 44.3186V43.3334C57.637 43.1926 57.711 43.1186 57.8518 43.1186H58.9999Z" fill="#CC203B"/>
<path id="Vector_23" d="M64.6815 43.1185V41.5333C64.6815 41.3555 64.7704 41.2666 64.9481 41.2666H66.1333C66.3111 41.2666 66.4 41.3555 66.4 41.5333V43.1185H67.7778C67.9185 43.1185 67.9926 43.1925 67.9926 43.3333V44.3185C67.9926 44.4592 67.9185 44.5333 67.7778 44.5333H66.4V47.3185C66.4 47.6518 66.4667 47.9036 66.6074 48.0592C66.7407 48.2148 67.0074 48.2962 67.4074 48.2962H67.8519C67.9926 48.2962 68.0667 48.3703 68.0667 48.511V49.4814C68.0667 49.6222 67.9926 49.6962 67.8519 49.6962H67.1185C66.637 49.6962 66.2444 49.6518 65.9333 49.5629C65.6222 49.474 65.3704 49.3333 65.1852 49.1407C65 48.9481 64.8667 48.7036 64.7926 48.3999C64.7185 48.0962 64.6815 47.7333 64.6815 47.311V44.5259H63.5407C63.4 44.5259 63.3259 44.4518 63.3259 44.311V43.3333C63.3259 43.1925 63.4 43.1185 63.5407 43.1185H64.6815Z" fill="#CC203B"/>
</g>
<g id="Group_7">
<path id="Vector_24" d="M41.6593 4.12594C46.1852 4.12594 50.5852 4.97779 54.7482 6.66668H54.7556C68.0149 11.763 77.3927 25.1852 77.7186 39.4222H74.6297C74.4889 39.4222 74.3556 39.4815 74.2593 39.5778C74.163 39.6741 74.1112 39.8074 74.1112 39.9482C74.1482 42.2445 73.9556 44.5482 73.5482 46.8074C73.1334 49.0815 72.4964 51.3111 71.6519 53.4371C71.6519 53.4371 71.6519 53.437 71.6519 53.4445C70.3408 56.8371 68.4964 59.9852 66.1778 62.8074C63.9408 65.5259 61.2964 67.9037 58.3112 69.8667C55.3704 71.8074 52.1704 73.3037 48.7852 74.3259C45.3778 75.3556 41.8593 75.8815 38.3408 75.8815C33.8149 75.8815 29.4149 75.0222 25.2519 73.3408H25.2445C11.9852 68.2445 2.60747 54.8222 2.28154 40.5852H5.37043C5.51117 40.5852 5.6445 40.5259 5.7408 40.4296C5.8371 40.3333 5.88895 40.2 5.88895 40.0593C5.85191 37.7704 6.0445 35.4593 6.45191 33.2C6.86673 30.9259 7.50376 28.6963 8.34821 26.5704C8.34821 26.5704 8.34821 26.5704 8.34821 26.563C9.65932 23.1704 11.5038 20.0222 13.8223 17.2C16.0593 14.4815 18.7038 12.1037 21.6889 10.1408C24.6297 8.20742 27.8297 6.70372 31.2149 5.6815C34.6223 4.64446 38.1334 4.12594 41.6593 4.12594ZM41.6593 3.60742C27.2371 3.60742 13.326 12.2889 7.86673 26.3778C6.1408 30.7259 5.30376 35.4074 5.37043 40.0593H1.75562C1.85932 54.6815 11.4223 68.5704 25.0593 73.8148C29.3778 75.5704 33.8889 76.3926 38.3408 76.3926C52.763 76.3926 66.6741 67.7111 72.1334 53.6222C73.8593 49.2741 74.6964 44.5926 74.6297 39.9408H78.2519C78.1482 25.3185 68.5852 11.4296 54.9482 6.1852C50.6223 4.42964 46.1186 3.60742 41.6593 3.60742Z" fill="url(#paint0_linear_491_1103)"/>
</g>
</g>
<defs>
<linearGradient id="paint0_linear_491_1103" x1="1.75624" y1="40.0001" x2="78.2438" y2="40.0001" gradientUnits="userSpaceOnUse">
<stop stop-color="#EDC472"/>
<stop offset="0.4821" stop-color="#EBC178"/>
<stop offset="1" stop-color="#D49635"/>
</linearGradient>
<clipPath id="clip0_491_1103">
<rect width="80" height="80" fill="white"/>
</clipPath>
</defs>
</svg>
