<svg xmlns="http://www.w3.org/2000/svg" width="162" height="70" viewBox="0 0 162 70" fill="none">
  <mask id="mask0_1_1537" style="mask-type:luminance" maskUnits="userSpaceOnUse" x="0" y="0" width="162" height="70">
    <path d="M161.556 0.3125H0.5V69.0299H161.556V0.3125Z" fill="white"/>
  </mask>
  <g mask="url(#mask0_1_1537)">
    <mask id="mask1_1_1537" style="mask-type:luminance" maskUnits="userSpaceOnUse" x="0" y="0" width="162" height="70">
      <path d="M161.557 0.313477H0.500549V69.0309H161.557V0.313477Z" fill="white"/>
    </mask>
    <g mask="url(#mask1_1_1537)">
      <mask id="mask2_1_1537" style="mask-type:luminance" maskUnits="userSpaceOnUse" x="1" y="12" width="161" height="45">
        <path d="M161.549 12.1152H1.56616V56.1373H161.549V12.1152Z" fill="white"/>
      </mask>
      <g mask="url(#mask2_1_1537)">
        <path d="M9.13834 54.3864L3.7132 52.2982V41.0303L9.13834 43.1167V54.3864Z" fill="#00B6FF"/>
        <path d="M102.2 12.5791H111.14V55.8404H102.2V12.5791Z" fill="black"/>
        <path d="M27.0724 13.4082C31.6199 13.4082 35.2385 14.2934 37.9284 16.0639C40.6164 17.8344 41.9613 20.4712 41.9613 23.9743C41.9613 26.1079 41.496 27.9542 40.5671 29.5147C39.6383 31.0771 38.3616 32.3331 36.7404 33.2845C38.9952 34.3116 40.7734 35.6546 42.0786 37.3116C43.3839 38.9686 44.0364 40.8809 44.0364 43.0524C44.0364 45.3373 43.6109 47.2705 42.7614 48.85C41.9102 50.4313 40.7639 51.7061 39.3206 52.6766C37.8773 53.6469 36.2449 54.3524 34.427 54.7894C32.6073 55.2282 30.7289 55.4458 28.7918 55.4458H14.2606V13.4082H27.0724ZM28.0806 30.6003C29.7811 30.6003 31.0353 30.1068 31.8469 29.1155C32.6564 28.1262 33.0632 27.0027 33.0632 25.7448C33.0632 24.2978 32.5581 23.2139 31.5498 22.4894C30.5417 21.7669 29.1872 21.4038 27.4867 21.4038H22.8598V30.5985H28.0806V30.6003ZM28.3776 47.7358C30.2749 47.7358 31.8771 47.3651 33.1822 46.6218C34.4875 45.8784 35.1401 44.6905 35.1401 43.0524C35.1401 41.8344 34.7845 40.9112 34.0733 40.2833C33.3621 39.6553 32.4427 39.2183 31.3153 38.9704C30.188 38.7226 29.0113 38.5997 27.7855 38.5997H22.8617V47.7377H28.3776V47.7358Z" fill="black"/>
        <path d="M99.0947 23.049C97.3676 22.1486 95.6104 21.4034 93.8228 20.8152C92.0352 20.2268 90.3592 19.9337 88.7987 19.9337C86.8654 19.9337 85.3465 20.3062 84.2362 21.0516C83.1256 21.7969 82.5715 22.9129 82.5715 24.4015C82.5715 25.4211 82.9932 26.3328 83.835 27.1348C84.6768 27.9387 85.7664 28.6537 87.1019 29.2798C88.4374 29.9077 89.8239 30.4752 91.2634 30.9841C93.0302 31.612 94.7364 32.4046 96.3803 33.3655C98.0241 34.3263 99.3803 35.639 100.449 37.3036C101.518 38.9701 102.051 41.1737 102.051 43.9164C102.051 46.1125 101.455 48.1479 100.264 50.0299C99.0721 51.912 97.3242 53.4308 95.0221 54.5846C92.72 55.7404 89.8844 56.3192 86.5135 56.3192C83.9239 56.3192 81.2833 55.9466 78.5916 55.2014C75.8998 54.4581 73.3612 53.2815 70.9778 51.6755L74.9237 45.0343C76.4861 46.1314 78.2738 47.0317 80.2882 47.7374C82.301 48.4429 84.1113 48.7947 85.7135 48.7947C86.7823 48.7947 87.8604 48.6471 88.9501 48.3539C90.0376 48.0609 90.9437 47.5596 91.6626 46.8559C92.3814 46.1503 92.7408 45.1706 92.7408 43.9164C92.7408 42.6624 92.0939 41.4972 90.798 40.5363C89.5042 39.5773 87.9512 38.7639 86.1429 38.0961C84.7449 37.5874 83.3073 36.9991 81.8262 36.3332C80.347 35.6675 78.9586 34.8542 77.6645 33.8932C76.3707 32.9341 75.3209 31.7388 74.5208 30.3069C73.7188 28.8768 73.3176 27.1234 73.3176 25.0465C73.3176 22.5383 73.9041 20.3649 75.075 18.5226C76.2458 16.6802 77.9011 15.2219 80.0386 14.1437C82.1762 13.0674 84.6409 12.4677 87.4367 12.3506C91.0951 12.3506 94.0649 12.7629 96.3462 13.5858C98.6274 14.4085 100.672 15.3883 102.481 16.5252L99.089 23.049H99.0947Z" fill="black"/>
        <path d="M146.989 52.2562C146.494 52.6479 145.581 53.1775 144.245 53.8433C142.909 54.511 141.276 55.0974 139.344 55.6062C137.411 56.1149 135.275 56.3495 132.931 56.3116C129.355 56.2323 126.16 55.6175 123.345 54.4599C120.528 53.3042 118.144 51.7267 116.192 49.7273C114.24 47.7279 112.75 45.4354 111.724 42.8497C110.696 40.2639 110.181 37.5003 110.181 34.5629C110.181 30.1745 111.106 26.295 112.956 22.9243C114.806 19.5554 117.384 16.9092 120.693 14.9893C124.001 13.0694 127.855 12.1084 132.253 12.1084C135.295 12.1084 137.985 12.5 140.33 13.285C142.673 14.07 144.584 14.9117 146.063 15.8121L142.549 23.8643C141.521 23.121 140.153 22.3455 138.448 21.5416C136.741 20.7395 134.779 20.3367 132.559 20.3367C130.337 20.3367 128.111 20.9439 126.116 22.1582C124.123 23.3725 122.519 25.0088 121.308 27.0667C120.095 29.1248 119.488 31.4663 119.488 34.09C119.488 36.8724 120.042 39.3124 121.152 41.4083C122.263 43.5041 123.844 45.1403 125.901 46.3168C127.955 47.4915 130.359 48.0797 133.114 48.0797C135.537 48.0797 137.613 47.7071 139.339 46.9619C141.067 46.2186 142.382 45.4335 143.286 44.6107L146.986 52.2526L146.989 52.2562Z" fill="black"/>
        <path d="M59.4919 12.2021H57.7894L37.9256 55.8399H46.7424L50.4425 47.3752H65.4864L69.001 55.8399H79.3595L59.4919 12.2021ZM53.5844 40.2044L58.147 29.6817L62.5242 40.2044H53.5844Z" fill="black"/>
        <path d="M154.047 12.1084C150.474 12.1084 147.584 14.9823 147.584 18.5435C147.584 22.1117 150.486 25.0071 154.038 24.9929C157.606 24.9751 160.473 22.1011 160.469 18.5435C160.469 14.9931 157.591 12.1084 154.047 12.1084ZM154.011 24.1912C150.902 24.1912 148.382 21.6536 148.386 18.5328C148.386 15.4332 150.922 12.9065 154.026 12.9065C157.143 12.9065 159.674 15.4368 159.674 18.547C159.674 21.6714 157.143 24.1948 154.011 24.1912Z" fill="black"/>
        <path d="M155.637 19.033C156.631 18.6308 157.021 17.9357 156.916 16.9951C156.845 16.3578 156.5 15.8807 155.864 15.5978C155.432 15.407 154.972 15.3389 154.499 15.3355C153.687 15.3321 152.875 15.3355 152.063 15.3355C152.007 15.3355 151.95 15.3422 151.894 15.3456V21.773H153.116V21.7627V19.2955C153.531 19.2955 153.919 19.3022 154.307 19.292C154.442 19.2886 154.505 19.3364 154.562 19.4386C154.693 19.667 154.824 19.8951 154.958 20.1236H154.951L155.873 21.7763H157.263C157.263 21.7763 157.26 21.773 157.263 21.773C156.711 20.8392 156.18 19.9462 155.641 19.0365L155.637 19.033ZM153.131 18.3685V16.2725C153.684 16.2725 154.218 16.2386 154.745 16.2828C155.35 16.3305 155.683 16.7259 155.695 17.2984C155.705 17.8709 155.372 18.3037 154.778 18.3617C154.24 18.4128 153.691 18.372 153.131 18.372V18.3685Z" fill="black"/>
      </g>
    </g>
  </g>
</svg>