<svg xmlns="http://www.w3.org/2000/svg" width="181" height="117" viewBox="0 0 181 117" fill="none">
  <g clip-path="url(#clip0_1_1595)">
    <mask id="mask0_1_1595" style="mask-type:luminance" maskUnits="userSpaceOnUse" x="-21" y="-25" width="218" height="148">
      <path d="M-20.2651 122.483H196.095V-24.9713H-20.2651V122.483Z" fill="white"/>
    </mask>
    <g mask="url(#mask0_1_1595)">
      <path d="M0.0839844 74.4199H5.42113V106.378H0.0839844V74.4199Z" fill="black"/>
      <path d="M10.8357 81.2921H15.9182V83.2934C17.1998 82.3139 19.5606 80.8791 22.8439 80.8791C28.9517 80.8791 31.0545 84.6825 31.0545 89.7608V106.38H25.8725V90.5802C25.8725 87.087 24.8455 85.04 21.0969 85.04C19.048 85.04 17.1998 85.959 16.021 86.7834V106.38H10.8357L10.8357 81.2921Z" fill="black"/>
      <path d="M49.8119 89.4519C49.8119 86.8368 48.2723 84.4226 44.9351 84.4226C41.6013 84.4226 40.06 86.8368 40.06 89.4519C40.06 92.0669 41.6013 94.3734 44.9351 94.3734C48.2723 94.3734 49.8119 92.0669 49.8119 89.4519ZM51.1964 108.691C51.1964 106.435 49.7058 105.612 45.6013 105.462C43.8592 105.41 42.3702 105.302 41.7547 105.253C40.3702 105.919 38.6772 107 38.6772 109.106C38.6772 111.51 41.1898 112.537 44.6266 112.537C49.1964 112.537 51.1964 111.1 51.1964 108.691ZM33.8527 109.718C33.8527 106.897 36.3163 105.101 38.4698 104.174C37.2404 103.507 36.3163 102.377 36.3163 100.478C36.3163 98.4821 37.8527 97.0979 39.0853 96.4792C36.5204 94.9905 35.0314 92.5289 35.0314 89.4519C35.0314 84.5221 38.8257 80.8803 44.8862 80.8803C46.3735 80.8803 47.5523 81.0876 48.7327 81.2933H56.994V84.9873H52.9923C54.1711 86.2688 54.7899 87.8048 54.7899 89.6037C54.7899 94.2739 51.1441 97.8667 44.8862 97.8667C43.9098 97.8667 42.9335 97.7688 42.0633 97.5582C41.4462 97.9157 40.78 98.5849 40.78 99.4517C40.78 100.478 41.3923 101.048 43.1392 101.151L47.9637 101.406C52.6331 101.611 56.3262 103.306 56.3262 108.227C56.3262 113.466 51.6062 116.232 44.4241 116.232C38.0094 116.232 33.8527 113.874 33.8527 109.718Z" fill="black"/>
      <path d="M60.3451 81.2921H65.4782V83.9104C67.0161 82.1148 69.07 80.8791 71.7884 80.8791C72.51 80.8791 73.3296 81.0391 73.8929 81.186V85.8562C73.2757 85.7044 72.4072 85.4987 71.2757 85.4987C68.4529 85.4987 66.8627 86.4781 65.5271 87.6028V106.38H60.3451V81.2921Z" fill="black"/>
      <path d="M114.797 100.996V85.8119C113.922 85.4528 112.538 84.9369 110.841 84.9369C106.173 84.9369 103.916 88.4286 103.916 93.817C103.916 98.688 105.455 102.591 110.231 102.591C112.025 102.591 113.718 101.971 114.797 100.996ZM98.4265 94.0145C98.4265 86.7342 102.84 80.8821 110.025 80.8821C112.435 80.8821 114.079 81.5008 114.797 81.8599V71.4977H119.929V106.383H114.797V104.385C113.769 105.565 111.617 106.791 108.738 106.791C101.865 106.791 98.4265 101.767 98.4265 94.0145Z" fill="black"/>
      <path d="M125.185 81.2566H130.367V106.343H125.185V81.2566ZM124.517 73.7657C124.517 72.0191 125.903 70.5336 127.802 70.5336C129.647 70.5336 131.088 72.0191 131.088 73.7657C131.088 75.5124 129.647 76.9994 127.802 76.9994C125.903 76.9994 124.517 75.5124 124.517 73.7657Z" fill="black"/>
      <path d="M151.904 93.8259C151.904 89.2047 150.621 84.8447 145.748 84.8447C140.925 84.8447 139.691 89.2047 139.691 93.8259C139.691 98.3933 140.925 102.753 145.8 102.753C150.673 102.753 151.904 98.3933 151.904 93.8259ZM134.304 93.8259C134.304 87.1038 137.898 80.8405 145.8 80.8405C153.704 80.8405 157.243 86.5423 157.243 93.8259C157.243 100.546 153.601 106.751 145.748 106.751C137.898 106.751 134.304 101.111 134.304 93.8259Z" fill="black"/>
      <path d="M160.774 81.2537H165.856V83.255C167.138 82.2788 169.499 80.8391 172.784 80.8391C178.888 80.8391 180.994 84.6425 180.994 89.7191V106.34H175.81V90.5402C175.81 87.0469 174.784 84.9999 171.037 84.9999C168.984 84.9999 167.138 85.9222 165.956 86.7433V106.34H160.774V81.2537Z" fill="black"/>
      <path d="M90.6691 90.8428V90.5833C90.6691 87.7071 89.0756 84.8831 85.843 84.8831C82.816 84.8831 80.4029 86.5791 79.8903 90.8428H90.6691ZM74.3997 93.8643C74.3997 86.5301 78.5564 80.8821 85.8936 80.8821C93.3369 80.8821 95.8495 86.4811 95.8495 92.1193C95.8495 92.8392 95.7989 93.4579 95.7467 94.2251H79.6846C79.7368 99.3066 81.7385 102.739 87.0756 102.739C90.1009 102.739 92.514 102.075 94.3099 101.202V105.359C92.5646 106.079 89.7417 106.791 86.816 106.791C78.2478 106.791 74.3997 101.561 74.3997 93.8643Z" fill="black"/>
      <path d="M70.8135 59.7639C80.9556 55.8773 87.8911 47.7465 90.1605 37.869C80.167 40.8318 72.5441 49.3021 70.8135 59.7639ZM31.0028 21.9763C23.8223 46.5924 46.7351 67.2222 69.3049 60.27C70.1164 44.1079 56.771 21.9763 31.0028 21.9763ZM41.0926 7.11039C38.3334 9.33693 35.9628 12.0271 34.1097 15.0698C53.3065 17.249 69.2266 35.1217 70.4151 52.069C71.4845 32.7516 59.2935 13.9941 41.0926 7.11039ZM71.9547 48.2835C76.6111 29.9341 69.5449 10.1009 63.6951 0.535221C59.2608 -0.153637 53.4371 0.933517 50.3073 2.01251C63.2853 11.521 73.6102 31.0751 71.9547 48.2835ZM72.6715 2.96255C84.1588 8.00655 91.8699 20.1807 90.8185 33.7098C83.4878 35.0287 77.22 40.2572 73.6821 46.5254C80.4511 26.7934 75.6723 9.3908 72.6715 2.96255Z" fill="#6CB33F"/>
    </g>
  </g>
  <defs>
    <clipPath id="clip0_1_1595">
      <rect width="180.91" height="115.918" fill="white" transform="translate(0.0891113 0.3125)"/>
    </clipPath>
  </defs>
</svg>