<svg xmlns="http://www.w3.org/2000/svg" width="206" height="92" viewBox="0 0 206 92" fill="none">
  <path d="M124.073 63.2337H152.019V74.6931H110.585V15.8486H124.073V63.2337Z" fill="black"/>
  <path d="M181.685 52.2604H192.669V62.5573C190.652 63.3323 186.698 64.1073 182.946 64.1073C170.801 64.1073 166.763 57.8919 166.763 45.2701C166.763 33.2242 170.607 26.1357 182.741 26.1357C189.504 26.1357 193.341 28.2747 196.523 32.3537L204.914 24.5832C199.789 17.2183 190.847 14.9863 182.449 14.9863C163.572 14.9786 153.646 25.3582 153.646 45.1693C153.646 64.8823 162.616 75.5693 182.349 75.5693C191.41 75.5693 200.268 73.2443 205.088 69.837V41.2867H181.685V52.2604Z" fill="black"/>
  <path d="M77.1549 77.6839C94.784 59.9134 94.7831 31.1008 77.1531 13.3292C59.523 -4.44236 30.9396 -4.44318 13.3105 13.3274C-4.31871 31.0979 -4.31791 59.9105 13.3123 77.6821C30.9424 95.4541 59.5257 95.4541 77.1549 77.6839Z" fill="#A50034"/>
  <path d="M56.2773 61.2353H47.0516V26.2939H43.6406V64.684H47.0592V64.6608H56.2851L56.2773 61.2353Z" fill="white"/>
  <path d="M79.282 46.9501H56.3252V43.5222H82.6469C82.6828 44.1861 82.7007 44.85 82.7007 45.5217C82.7007 66.162 66.0123 82.8913 45.4311 82.8913C24.8499 82.8913 8.15894 66.1697 8.15894 45.519C8.15894 24.8684 24.8448 8.14941 45.4285 8.14941C45.9718 8.14941 46.5125 8.1606 47.0508 8.183V11.5852C46.5125 11.5611 45.9736 11.549 45.4337 11.549C26.7259 11.549 11.5545 26.7593 11.5545 45.519C11.5545 64.2788 26.7233 79.4917 45.4337 79.4917C63.629 79.4917 78.4927 65.1002 79.2795 47.0458L79.282 46.9501Z" fill="white"/>
  <path d="M31.5412 36.6285C32.5705 36.6234 33.5753 36.311 34.4287 35.7309C35.2821 35.1507 35.9459 34.3287 36.3363 33.3687C36.7267 32.4086 36.8262 31.3535 36.6223 30.3364C36.4185 29.3194 35.9202 28.386 35.1906 27.6541C34.4609 26.9222 33.5326 26.4245 32.5226 26.2241C31.5127 26.0235 30.4664 26.129 29.5159 26.5272C28.5654 26.9255 27.7532 27.5986 27.1819 28.4617C26.6105 29.3248 26.3055 30.3391 26.3055 31.3767C26.3073 32.0681 26.444 32.7523 26.708 33.3905C26.972 34.0286 27.3582 34.608 27.8443 35.0957C28.3305 35.5833 28.9072 35.9697 29.5415 36.2327C30.1758 36.4957 30.8553 36.6302 31.5412 36.6285Z" fill="white"/>
</svg>