<svg width="158" height="155" viewBox="0 0 158 155" fill="none" xmlns="http://www.w3.org/2000/svg">
<path d="M24.2263 49.5091C27.3532 46.0513 31.3979 44.9667 35.2634 46.6066C32.3983 52.2025 30.8122 58.1487 30.7165 64.6999C27.4947 64.3092 25.1425 62.8195 23.601 60.2094C21.4707 56.602 21.7462 53.0234 24.2263 49.5091Z" fill="#454449"/>
<path d="M70.0159 25.8398C73.2931 26.18 76.675 26.1284 79.8198 26.9638C83.3852 27.911 86.8334 29.4634 90.148 31.1198C92.1404 32.1154 93.8481 33.7339 95.5613 35.2133C97.5268 36.9106 99.3729 38.7475 101.231 40.5647C101.552 40.8791 101.673 41.3969 101.962 41.9691C103.267 41.6085 104.622 41.1976 105.994 40.8618C110.725 39.7046 115.035 41.2533 118.445 44.1125C123.901 48.6883 125.54 55.743 121.778 62.5371C119.363 66.8962 115.791 69.1611 111.006 69.8638C109.885 70.0286 109.115 70.577 108.951 71.7985C108.436 75.6229 107.289 79.2369 105.314 82.5765C103.842 85.066 102.723 87.8507 100.864 90.0049C98.1106 93.1968 94.8643 95.9712 91.7831 98.8764C89.7319 100.81 87.6603 102.731 85.4957 104.536C82.1628 107.315 78.7468 109.995 75.3498 112.697C75.1128 112.886 74.7417 112.907 74.3672 113.102C73.9498 113.199 73.5981 113.199 73.217 113.083C73.2019 112.299 73.1841 111.627 73.2365 110.961C73.4071 108.788 73.6033 106.618 73.8025 104.297C72.2943 104.297 71.1539 104.297 70.014 104.145C70.0149 102.161 70.0153 100.329 70.1599 98.472C81.7184 98.0564 90.1914 88.2072 88.8155 76.8637C88.6699 75.6636 89.0286 75.2026 90.1396 74.7379C97.1573 71.8027 101.193 66.5043 101.654 58.9317C102.12 51.2789 98.7082 45.4607 91.9971 41.7629C85.6734 38.2785 77.1604 38.729 70.4468 44.8474C70.2327 44.0587 70.0335 43.3736 70.0303 42.6877C70.0049 37.0719 70.016 31.4558 70.0159 25.8398ZM109.28 61.4593C109.371 62.5327 109.462 63.6062 109.552 64.6684C113.665 64.5449 117.085 61.8901 118.265 58.009C119.454 54.0951 117.902 49.7949 114.469 47.4914C111.519 45.5126 107.281 45.2615 105.058 46.9642C107.365 51.4207 108.782 56.1533 109.28 61.4593Z" fill="#FDD212"/>
<path d="M70.0209 98.4978C70.0205 100.33 70.0201 102.162 69.8682 104.176C59.9064 104.516 51.3991 101.066 44.1004 94.7377C36.6874 88.3104 32.242 80.1665 30.9152 70.3668C30.3668 70.2095 29.7673 69.9684 29.1451 69.8699C23.8347 69.0299 20.054 66.2198 17.8547 61.3007C17.5383 60.5931 17.0329 59.9696 16.615 59.3071C16.615 56.7809 16.615 54.2547 16.615 51.5745C16.8475 51.147 17.1835 50.9104 17.2971 50.5944C18.9132 46.0973 22.0555 43.1188 26.4587 41.3941C29.3447 40.2638 32.3156 40.4286 35.2946 40.9112C35.4674 40.9392 35.6142 41.1289 35.7723 41.2444C36.8897 42.06 37.8074 42.0688 38.8306 40.9224C42.9814 36.2718 47.1265 31.6104 51.4439 27.1155C54.4332 24.0034 57.6516 21.1019 60.8806 18.2325C61.6551 17.5442 62.8785 17.3577 63.8954 16.9404C63.9618 17.8523 64.0729 18.7636 64.0855 19.6762C64.1142 21.7561 64.0946 23.8366 64.0946 25.793C66.0835 25.793 67.9251 25.793 69.894 25.8167C70.0212 31.4563 70.0101 37.0723 70.0356 42.6882C70.0387 43.3741 70.2379 44.0591 70.3675 44.9444C69.9081 44.8944 69.3589 44.7245 68.9568 44.3827C63.1633 39.4599 56.6332 38.1543 49.6385 41.1106C42.3809 44.178 38.5096 49.9783 38.4867 57.8221C38.4644 65.4469 42.2206 71.0165 49.124 74.4027C49.6958 74.6832 50.2837 74.9314 50.8288 75.1786C49.9162 79.9844 50.4715 84.4177 52.8336 88.5162C56.6293 95.1021 62.4415 98.336 70.0209 98.4978ZM24.1596 49.5938C21.7521 53.0145 21.4766 56.5932 23.607 60.2005C25.1484 62.8106 27.5006 64.3004 30.7224 64.691C30.8181 58.1399 32.4042 52.1937 35.2693 46.5978C31.4039 44.9579 27.3592 46.0425 24.1596 49.5938Z" fill="#FDD212"/>
<path d="M87.0296 0.492188C87.7735 1.55501 88.3243 2.60349 87.1134 3.65563C86.9802 3.77129 87.0102 4.16902 87.0774 4.40379C88.0015 7.6312 88.9455 10.853 89.9889 14.4342C93.4032 13.1241 96.5259 11.9435 99.6277 10.7107C99.9712 10.5742 100.168 10.1054 100.482 9.85193C100.862 9.54556 101.363 9.02105 101.69 9.09881C102.24 9.22944 102.896 9.6673 103.123 10.154C103.302 10.5387 103.05 11.5405 102.739 11.6704C99.3294 13.093 99.2498 16.6686 97.7161 19.2754C96.6741 21.0465 95.9822 23.0184 95.0368 24.8508C94.0323 26.7979 91.8317 26.9611 88.9917 25.7369C86.2423 24.5517 83.4326 23.3974 80.5362 22.691C77.905 22.0492 75.1271 21.9527 72.4037 21.753C69.28 21.5241 67.8065 19.4634 68.3667 16.1908C68.6532 14.5175 68.5871 12.7852 68.6984 11.0808C68.7966 9.57723 68.8066 8.05545 69.0676 6.57896C69.2775 5.39193 69.4741 4.42153 68.3724 3.48482C67.3872 2.64712 67.6639 1.66279 69.064 1.09574C70.2715 1.14472 70.8287 1.54402 70.7142 2.63434C70.6807 2.95295 70.828 3.36246 71.0315 3.62175C72.1239 5.01306 73.2359 6.39087 74.3886 7.73277C75.4194 8.93268 76.5118 10.0799 77.6798 11.3632C80.5444 7.89838 84.3805 5.25622 85.1928 0.492188C85.758 0.492188 86.3232 0.492188 87.0296 0.492188Z" fill="#414143"/>
<path d="M70.1651 98.4767C62.4415 98.3403 56.6293 95.1063 52.8336 88.5204C50.4715 84.422 49.9161 79.9887 50.8287 75.1829C50.2836 74.9357 49.6958 74.6875 49.1239 74.407C42.2206 71.0207 38.4644 65.4511 38.4867 57.8263C38.5096 49.9826 42.3808 44.1822 49.6385 41.1148C56.6332 38.1585 63.1633 39.4641 68.9567 44.387C69.3589 44.7287 69.908 44.8986 70.4733 45.0519C77.1656 38.7338 85.6786 38.2832 92.0023 41.7676C98.7133 45.4655 102.125 51.2837 101.659 58.9364C101.198 66.5091 97.1624 71.8074 90.1448 74.7427C89.0338 75.2073 88.6751 75.6683 88.8207 76.8684C90.1966 88.2119 81.7236 98.0611 70.1651 98.4767ZM70.1249 53.8516C69.3557 52.733 68.5754 51.6219 67.8191 50.4947C62.7 42.8661 51.785 42.4332 46.1169 49.6375C40.0012 57.4109 44.2242 68.8621 53.956 70.8917C55 71.1095 56.046 71.3177 57.1396 71.5401C56.6429 72.9752 56.158 74.1974 55.7949 75.4544C53.1459 84.6235 60.7639 94.2828 70.3037 93.5691C74.5647 93.4362 78.0817 91.6862 80.7644 88.4529C85.0644 83.2703 84.9532 77.5498 82.2439 71.5425C83.078 71.3965 83.6601 71.2858 84.2452 71.1947C84.8418 71.1018 85.4515 71.0723 86.0381 70.9391C91.5893 69.6785 95.2323 66.3088 96.5436 60.8085C97.831 55.4082 96.0952 50.7791 91.7506 47.3726C87.3341 43.9096 82.4129 43.5551 77.354 46.0012C73.96 47.6422 72.0666 50.6645 70.1249 53.8516Z" fill="white"/>
<path d="M109.264 61.3172C108.776 56.1613 107.359 51.4287 105.053 46.9722C107.275 45.2695 111.513 45.5206 114.463 47.4994C117.896 49.8029 119.448 54.1031 118.259 58.017C117.08 61.8981 113.659 64.5529 109.547 64.6764C109.456 63.6142 109.365 62.5407 109.264 61.3172Z" fill="#414143"/>
<path d="M70.0258 93.5143C60.7743 94.2886 53.1562 84.6293 55.8052 75.4602C56.1684 74.2031 56.6533 72.981 57.1499 71.5459C56.0563 71.3234 55.0103 71.1152 53.9664 70.8975C44.2346 68.8678 40.0116 57.4166 46.1273 49.6433C51.7953 42.439 62.7104 42.8719 67.8294 50.5005C68.5858 51.6276 69.3661 52.7388 70.2533 53.996C70.3679 59.129 70.3465 64.1235 70.3807 69.1176C70.3857 69.8531 70.6545 70.5868 70.8328 71.3718C70.8846 71.5083 70.8619 71.581 70.7312 71.7744C70.5632 74.6143 70.4601 77.32 70.2053 80.054C67.7785 80.0823 65.5035 80.0823 63.1181 80.0823C63.455 82.0224 64.4001 83.1051 65.7737 83.5905C67.2398 84.1085 68.8262 84.288 70.36 84.7695C70.3602 85.5217 70.3832 86.1206 70.3565 86.7172C70.255 88.9833 70.1374 91.2487 70.0258 93.5143ZM58.3915 65.9323C60.7102 66.0063 62.4437 65.0193 63.3979 62.928C64.2553 61.0488 64.033 59.1869 62.7312 57.5408C61.2939 55.7231 58.7902 55.1262 56.6491 56.0306C54.5726 56.9076 53.3472 58.9892 53.5498 61.2953C53.7617 63.708 55.3829 65.3508 58.3915 65.9323ZM67.9914 72.4203C68.8982 72.5794 69.4543 72.2284 69.2351 71.2953C69.1662 71.0017 68.4421 70.5852 68.1497 70.671C67.2511 70.9347 67.1333 71.5686 67.9914 72.4203Z" fill="#F8D40D"/>
<path d="M70.163 93.539C70.1305 91.2431 70.2481 88.9778 70.3496 86.7117C70.3764 86.115 70.3533 85.5161 70.4899 84.7331C72.0559 84.2225 73.5627 84.0801 74.8926 83.5201C76.2295 82.9573 77.1095 81.8159 76.9727 80.0605C75.8097 80.0605 74.7214 80.0657 73.6332 80.059C72.5388 80.0523 71.4445 80.0336 70.3502 80.0202C70.4532 77.3145 70.5563 74.6088 70.7939 71.866C71.4555 71.95 71.9825 72.0711 72.5095 72.1922C72.5139 71.7565 72.5184 71.3209 72.5229 70.8852C71.9467 71.0287 71.3705 71.1723 70.7944 71.3158C70.6476 70.5813 70.3788 69.8476 70.3738 69.1121C70.3396 64.118 70.361 59.1235 70.3692 53.9829C72.0701 50.6647 73.9634 47.6424 77.3575 46.0014C82.4164 43.5554 87.3375 43.9098 91.7541 47.3728C96.0987 50.7793 97.8344 55.4084 96.547 60.8087C95.2358 66.309 91.5928 69.6788 86.0415 70.9393C85.4549 71.0725 84.8452 71.102 84.2487 71.1949C83.6635 71.286 83.0815 71.3967 82.2474 71.5427C84.9567 77.55 85.0678 83.2706 80.7679 88.4531C78.0852 91.6864 74.5681 93.4365 70.163 93.539ZM81.9811 65.9189C85.1123 65.3459 87.0091 63.055 86.6657 60.261C86.3119 57.3816 84.0302 55.4998 81.0873 55.66C78.4429 55.8041 76.3207 58.0701 76.3101 60.7611C76.2984 63.6871 78.483 65.7802 81.9811 65.9189Z" fill="#F8D40D"/>
<path d="M58.2489 65.921C55.3807 65.3472 53.7596 63.7044 53.5476 61.2917C53.3451 58.9856 54.5705 56.904 56.6469 56.027C58.7881 55.1226 61.2917 55.7195 62.7291 57.5372C64.0308 59.1833 64.2532 61.0452 63.3958 62.9244C62.4416 65.0158 60.708 66.0027 58.2489 65.921Z" fill="black"/>
<path d="M70.1947 80.0515C71.4408 80.0366 72.5351 80.0553 73.6295 80.062C74.7177 80.0687 75.806 80.0635 76.969 80.0635C77.1058 81.8189 76.2258 82.9603 74.8889 83.5232C73.559 84.0831 72.0522 84.2255 70.4863 84.5818C68.8156 84.2854 67.2292 84.1059 65.7632 83.5879C64.3895 83.1026 63.4444 82.0198 63.1075 80.0798C65.4929 80.0798 67.7679 80.0798 70.1947 80.0515Z" fill="white"/>
<path d="M67.8777 72.3504C67.1275 71.5653 67.2453 70.9314 68.1439 70.6677C68.4364 70.5818 69.1604 70.9984 69.2294 71.292C69.4485 72.2251 68.8925 72.5761 67.8777 72.3504Z" fill="#4B483C"/>
<path d="M70.826 71.3707C71.3706 71.1767 71.9468 71.0332 72.523 70.8896C72.5185 71.3253 72.5141 71.7609 72.5096 72.1966C71.9826 72.0755 71.4556 71.9544 70.859 71.7362C70.8551 71.5799 70.8779 71.5072 70.826 71.3707Z" fill="#42413E"/>
<path d="M81.8364 65.923C78.4789 65.781 76.2943 63.6879 76.306 60.7619C76.3166 58.0709 78.4388 55.8049 81.0832 55.6609C84.0261 55.5006 86.3078 57.3825 86.6616 60.2618C87.005 63.0558 85.1082 65.3467 81.8364 65.923Z" fill="black"/>
<path d="M3.70543 114.212H10.4783L19.5485 136.351H19.9065L28.9768 114.212H35.7496V144.765H30.4387V123.775H30.1553L21.7116 144.675H17.7434L9.29973 123.73H9.01628V144.765H3.70543V114.212ZM51.533 145.212C49.2953 145.212 47.3559 144.72 45.7149 143.735C44.0739 142.751 42.8009 141.373 41.8959 139.603C41.0008 137.833 40.5532 135.764 40.5532 133.397C40.5532 131.03 41.0008 128.956 41.8959 127.176C42.8009 125.396 44.0739 124.014 45.7149 123.029C47.3559 122.044 49.2953 121.552 51.533 121.552C53.7707 121.552 55.71 122.044 57.351 123.029C58.992 124.014 60.2601 125.396 61.1552 127.176C62.0602 128.956 62.5127 131.03 62.5127 133.397C62.5127 135.764 62.0602 137.833 61.1552 139.603C60.2601 141.373 58.992 142.751 57.351 143.735C55.71 144.72 53.7707 145.212 51.533 145.212ZM51.5628 140.886C52.7761 140.886 53.7906 140.553 54.6061 139.886C55.4216 139.21 56.0283 138.305 56.4261 137.171C56.8339 136.038 57.0378 134.774 57.0378 133.382C57.0378 131.98 56.8339 130.712 56.4261 129.578C56.0283 128.434 55.4216 127.524 54.6061 126.848C53.7906 126.172 52.7761 125.834 51.5628 125.834C50.3196 125.834 49.2853 126.172 48.4598 126.848C47.6443 127.524 47.0327 128.434 46.6249 129.578C46.2271 130.712 46.0282 131.98 46.0282 133.382C46.0282 134.774 46.2271 136.038 46.6249 137.171C47.0327 138.305 47.6443 139.21 48.4598 139.886C49.2853 140.553 50.3196 140.886 51.5628 140.886ZM72.4967 131.338V144.765H67.0963V121.85H72.258V125.744H72.5265C73.0536 124.461 73.894 123.442 75.0477 122.686C76.2113 121.93 77.6484 121.552 79.359 121.552C80.9403 121.552 82.3178 121.89 83.4913 122.566C84.6749 123.243 85.5898 124.222 86.2363 125.505C86.8927 126.788 87.2159 128.345 87.206 130.175V144.765H81.8056V131.01C81.8056 129.479 81.4078 128.28 80.6121 127.415C79.8265 126.55 78.7374 126.117 77.3451 126.117C76.4003 126.117 75.5599 126.326 74.8239 126.744C74.0979 127.151 73.526 127.743 73.1083 128.519C72.7006 129.295 72.4967 130.234 72.4967 131.338ZM97.6188 137.574L97.6039 131.055H98.4692L106.704 121.85H113.014L102.885 133.129H101.766L97.6188 137.574ZM92.6958 144.765V114.212H98.0962V144.765H92.6958ZM107.077 144.765L99.6179 134.337L103.258 130.533L113.536 144.765H107.077Z" fill="#414141"/>
<path d="M129.353 129.817V134.262H115.599V129.817H129.353ZM135.272 144.765V114.212H155.143V118.852H140.807V127.146H154.114V131.786H140.807V140.125H155.262V144.765H135.272Z" fill="#FDD212"/>
</svg>
