<svg xmlns="http://www.w3.org/2000/svg" width="185" height="43" viewBox="0 0 185 43" fill="none">
  <g clip-path="url(#clip0_1_1273)">
    <path d="M181.875 33.7546V33.131H182.189C182.346 33.131 182.598 33.17 182.598 33.4038C182.598 33.6377 182.472 33.7546 182.252 33.7546H181.875ZM181.875 34.1833H182.095L182.598 35.2745H183.131L182.566 34.1443C182.849 34.1833 183.069 33.9105 183.1 33.5597V33.4818C183.1 32.8582 182.755 32.7024 182.189 32.7024H181.373V35.3135H181.844V34.1833M184.262 33.9884C184.262 32.4296 183.288 31.5332 182.221 31.5332C181.153 31.5332 180.18 32.4296 180.18 33.9884C180.18 35.5473 181.153 36.4436 182.221 36.4436C183.288 36.4436 184.262 35.5473 184.262 33.9884ZM183.665 33.9884C183.697 34.9627 183.069 35.8201 182.284 35.8591H182.221C181.404 35.898 180.682 35.0796 180.651 34.0664C180.619 33.0531 181.279 32.1568 182.095 32.1178C182.912 32.0788 183.634 32.8972 183.665 33.9105C183.665 33.9494 183.665 33.9494 183.665 33.9884Z" fill="black"/>
    <path d="M109.437 7.95401V35.5849H115.718V7.95401H109.437ZM59.981 7.91504V35.5849H66.324V14.1115L71.2539 14.1505C72.8868 14.1505 74.0172 14.6571 74.7708 15.6704C75.7757 16.9954 76.1525 19.0999 76.1525 22.9971V35.6239H82.3071V20.308C82.3071 9.39596 76.7177 7.91504 71.2225 7.91504C71.2853 7.91504 59.981 7.91504 59.981 7.91504ZM119.58 7.95401V35.5849H129.785C135.218 35.5849 137.007 34.4548 138.891 31.9606C140.242 30.2069 141.121 26.3097 141.121 22.0618C141.121 18.1646 140.399 14.6961 139.08 12.5527C136.788 8.69447 133.428 7.95401 128.404 7.95401C128.372 7.95401 119.58 7.95401 119.58 7.95401ZM125.797 13.9557H128.498C132.423 13.9557 134.966 16.1381 134.966 21.789C134.966 27.4399 132.423 29.6612 128.498 29.6612H125.797V13.9557ZM100.394 7.95401L95.15 29.8561L90.1259 7.95401H83.3433L90.5027 35.5849H99.5461L106.8 7.95401H100.394ZM144.041 35.6239H150.321V7.95401H144.041V35.6239ZM161.689 7.95401L152.928 35.5849H159.114L160.495 30.6745H170.889L172.208 35.546H178.959L170.104 7.95401H161.689ZM165.739 13.0203L169.57 25.92H161.846C161.814 25.92 165.739 13.0203 165.739 13.0203Z" fill="black"/>
    <path d="M19.4419 12.5538V8.77351C19.7559 8.73454 20.0385 8.73454 20.3526 8.73454C28.7366 8.42277 34.2317 17.698 34.2317 17.698C34.2317 17.698 28.297 27.8696 21.9226 27.8696C21.0748 27.8696 20.2584 27.7138 19.4419 27.363V15.8664C22.7076 16.373 23.367 18.1267 25.3139 22.1798L29.6786 17.6201C29.6786 17.6201 26.4757 12.4369 21.1376 12.4369C20.5724 12.4369 20.0071 12.4758 19.4419 12.5538ZM19.4419 0.00488281V5.65578L20.3526 5.57784C32.0023 5.0712 39.6013 17.4252 39.6013 17.4252C39.6013 17.4252 30.8718 30.6366 21.797 30.6366C21.012 30.6366 20.2269 30.5587 19.4419 30.3638V33.8713C20.0699 33.9492 20.7294 34.0272 21.3888 34.0272C29.8356 34.0272 35.9588 28.6491 41.8936 22.3357C42.867 23.31 46.8863 25.6872 47.7341 26.7005C42.1134 32.5462 28.9878 37.2618 21.5458 37.2618C20.8236 37.2618 20.1641 37.2228 19.4733 37.1059V42.0943H51.5964V0.00488281H19.4419ZM19.4419 27.402V30.4028C11.6231 28.6491 9.45644 18.5554 9.45644 18.5554C9.45644 18.5554 13.2246 13.4111 19.4419 12.5538V15.8274H19.4105C16.1448 15.3208 13.57 19.14 13.57 19.14C13.57 19.14 15.0458 25.5313 19.4419 27.402ZM5.56274 18.1267C5.56274 18.1267 10.1787 9.63089 19.4419 8.77351V5.69475C9.17384 6.70801 0.318787 17.4642 0.318787 17.4642C0.318787 17.4642 5.34293 35.5081 19.4419 37.1449V33.8713C9.07963 32.2734 5.56274 18.1267 5.56274 18.1267Z" fill="#76B900"/>
  </g>
  <defs>
    <clipPath id="clip0_1_1273">
      <rect width="183.946" height="42.0894" fill="white" transform="translate(0.321777)"/>
    </clipPath>
  </defs>
</svg>