<svg xmlns="http://www.w3.org/2000/svg" width="176" height="62" viewBox="0 0 176 62" fill="none">
  <g clip-path="url(#clip0_1_1787)">
    <g filter="url(#filter0_d_1_1787)">
      <path d="M27.0065 8.82888C26.3131 9.47745 25.3692 9.88646 24.6059 10.126C22.0014 2.27888 11.7348 -0.683512 5.27307 5.35814C-2.49387 12.8196 2.1325 24.7452 11.4785 26.3812C11.257 26.7201 11.0123 27.0298 10.7385 27.3395C-0.728389 24.9672 -3.96801 9.72286 5.72755 2.62362C12.8069 -2.54743 23.0852 0.239681 26.7385 8.20368C26.8317 8.40819 26.9249 8.61853 27.0123 8.82888H27.0065Z" fill="white"/>
    </g>
    <g filter="url(#filter1_d_1_1787)">
      <path d="M26.7851 18.3525V26.001H19.7698C18.587 26.6437 17.3168 27.1053 16.0058 27.3683C15.7553 27.082 15.528 26.784 15.3299 26.4743C15.4931 26.4509 15.6504 26.4276 15.8135 26.4042C16.9614 26.2055 18.0918 25.8491 19.158 25.3583V18.3584H26.7851V18.3525Z" fill="#063533"/>
    </g>
    <g filter="url(#filter2_d_1_1787)">
      <path d="M39.9883 13.0712C39.965 16.3959 37.3023 19.1538 33.9869 19.2706C32.5652 19.3232 31.1318 18.8441 30.0131 17.9735C28.9235 17.1263 28.2884 15.8583 27.1872 15.052C26.1267 14.269 24.8332 14.1288 23.5164 14.1288C22.8347 14.1288 22.2345 14.2223 21.6985 14.3917C21.6868 14.3917 21.6693 14.4034 21.6519 14.4093C20.9352 14.6839 19.3445 15.946 18.3773 16.7523C18.3656 16.764 18.3423 16.7874 18.3015 16.8166C18.1967 16.9101 17.9927 17.097 17.7247 17.3308C17.5674 17.4768 17.3809 17.6463 17.1828 17.8274C16.5244 18.4468 15.7436 19.2064 15.2425 19.7965C15.2251 19.814 15.2134 19.8316 15.1959 19.8549C15.0677 20.0302 14.9279 20.2464 14.8172 20.4918C14.4734 21.3507 14.3977 22.309 14.3977 23.2731C14.3977 24.6053 14.7589 25.5986 15.3358 26.475C15.5339 26.7847 15.7669 27.0827 16.0117 27.369C16.5302 27.9767 17.1304 28.5551 17.7597 29.192C18.8609 30.3139 19.531 31.8564 19.531 33.5509C19.531 36.9983 16.7342 39.7971 13.2906 39.7854C10.0219 39.7737 7.27749 37.1619 7.1027 33.884C7.0153 32.2771 7.57465 30.6294 8.68172 29.4433C9.41588 28.6603 10.1384 28.0176 10.7444 27.334C11.0182 27.0301 11.2629 26.7146 11.4843 26.3757C12.0087 25.5518 12.3409 24.5994 12.3409 23.2672C12.3409 21.935 12.1835 20.7197 11.327 19.6329C10.9425 19.1421 10.4414 18.7214 9.92862 18.3007C9.92862 18.3007 9.92474 18.2968 9.91697 18.289C9.35761 17.9326 8.86235 17.4827 8.45448 16.9743C8.39621 16.9042 8.33795 16.8399 8.27968 16.764C8.18063 16.6296 8.0874 16.4894 8 16.355C7.3882 15.385 7.0386 14.234 7.04443 13.0069C7.04443 12.037 7.2775 11.1197 7.69119 10.3016C7.7378 10.2081 7.78441 10.1147 7.83103 10.0212C7.88347 9.93353 7.92425 9.84588 7.97669 9.76408C8.05244 9.64138 8.12819 9.51283 8.21559 9.40181C8.27385 9.32001 8.32629 9.2499 8.39039 9.16809C8.50692 9.01618 8.63511 8.87594 8.76912 8.72987C8.89731 8.59548 9.03715 8.45525 9.18281 8.3267C9.40423 8.13973 9.63729 7.96444 9.87036 7.80668C9.95776 7.74825 10.0335 7.7015 10.1209 7.64892C10.4297 7.46194 10.7618 7.31002 11.0998 7.18732C11.2454 7.13473 11.3911 7.08799 11.5426 7.04124C11.9913 6.90686 12.4516 6.81921 12.9352 6.79584C14.5375 6.70819 16.1806 7.26912 17.3634 8.37929C19.3445 10.2549 20.4399 12.0487 23.528 12.0487C23.598 12.0487 23.6621 12.0487 23.732 12.0487C24.1865 12.0487 24.6293 12.0195 25.0721 11.9552C25.8995 11.8208 26.6803 11.5462 27.362 11.0145C27.461 10.9327 27.5659 10.8509 27.6591 10.7574C28.2826 10.2023 28.807 9.5362 29.3722 8.90516C29.8383 8.37929 30.3394 7.88848 30.9454 7.52037C31.8602 6.97113 32.8332 6.73157 33.783 6.73741C37.0051 6.76662 40.0175 9.63553 40 13.0595L39.9883 13.0712Z" fill="white"/>
    </g>
    <g filter="url(#filter3_d_1_1787)">
      <path d="M31.3241 27.3867H45.6926V31.7865H37.209V35.4676H45.1508V39.8732H37.209V47.4983H31.3241V27.3926V27.3867Z" fill="white"/>
      <path d="M54.4909 27.3867V47.4925H48.4836V27.3867H54.4909Z" fill="white"/>
      <path d="M61.9956 31.7982H56.7749V27.3867H73.1712V31.7982H67.9971V47.4925H61.9898V31.7982H61.9956Z" fill="white"/>
      <path d="M75.4902 47.4925V27.3867H82.6453C86.0714 35.9584 87.2658 39.0143 87.6096 40.1712H87.7262C87.5164 37.8574 87.4348 34.3457 87.4348 31.2665V27.3867H92.9352V47.4925H86.0481C82.4122 38.167 81.2527 35.2748 80.8682 34.112H80.7924C80.9847 36.5252 80.9847 40.0134 80.9847 43.4725V47.4925H75.496H75.4902Z" fill="white"/>
      <path d="M101.098 43.601L100.16 47.4925H94.287L99.8864 27.3867H107.968L113.806 47.4925H107.578L106.546 43.601H101.098ZM105.585 39.0435C104.868 36.2914 104.204 33.3875 103.796 31.2898H103.697C103.301 33.5043 102.672 36.3265 101.99 39.0435H105.585Z" fill="white"/>
      <path d="M119.109 41.3046C119.324 42.9465 120.286 43.8346 122.022 43.8346C123.758 43.8346 124.318 43.151 124.318 42.0934C124.318 40.767 123.426 40.1652 120.623 39.4173C115.356 38.0208 113.952 36.005 113.952 33.2354C113.952 29.2797 117.116 26.9893 121.748 26.9893C126.916 26.9893 129.608 29.4667 129.835 33.2062H124.195C124.055 32.0142 123.502 30.9976 121.783 30.9976C120.536 30.9976 119.819 31.5526 119.819 32.5518C119.819 33.7029 120.647 34.071 123.379 34.8247C128.909 36.3556 130.348 38.3948 130.348 41.4448C130.348 45.4297 127.289 47.878 121.865 47.878C116.44 47.878 113.672 45.272 113.41 41.2987H119.109V41.3046Z" fill="white"/>
      <path d="M135.697 31.7982H130.476V27.3867H146.873V31.7982H141.698V47.4925H135.691V31.7982H135.697Z" fill="white"/>
      <path d="M155.199 27.3867V47.4925H149.192V27.3867H155.199Z" fill="white"/>
      <path d="M176 40.732C175.412 44.9214 172.685 47.8955 167.097 47.8955C160.251 47.8955 157.798 43.186 157.798 37.5008C157.798 31.8156 160.711 26.9893 167.318 26.9893C173.553 26.9893 175.715 30.8515 175.913 34.0418H170.004C169.754 32.5167 169.212 31.2546 167.243 31.2546C164.824 31.2546 164.026 33.7262 164.026 37.4424C164.026 41.1585 164.795 43.6067 167.243 43.6067C169.288 43.6067 169.835 42.0759 170.074 40.7203H176V40.732Z" fill="white"/>
    </g>
    <g filter="url(#filter4_d_1_1787)">
      <path d="M31.3999 56.1045H33.7946C35.024 56.1045 35.8573 56.7998 35.8573 57.8983C35.8573 59.1604 34.9075 59.7388 33.7655 59.7388H32.6526V61.9066H31.3999V56.1045ZM32.6468 58.7397H33.6023C34.1792 58.7397 34.5929 58.5176 34.5929 57.9217C34.5929 57.3257 34.1617 57.0978 33.6315 57.0978H32.6526V58.7338L32.6468 58.7397Z" fill="white"/>
      <path d="M41.614 59.3999H38.8463V60.8724H41.8995L41.7538 61.9007H37.6344V56.0986H41.7363V57.127H38.8463V58.3716H41.614V59.3999Z" fill="white"/>
      <path d="M44.8536 59.5811V61.9007H43.63V56.0986H46.1704C47.429 56.0986 48.1107 56.7939 48.1107 57.6938C48.1107 58.4709 47.6912 58.8916 47.2717 59.0669C47.5572 59.172 47.9884 59.47 47.9884 60.5101V60.7964C47.9884 61.1879 47.9884 61.6319 48.0699 61.9007H46.8871C46.7822 61.6495 46.7648 61.2171 46.7648 60.5977V60.5159C46.7648 59.879 46.6074 59.5811 45.6752 59.5811H44.8536ZM44.8536 58.5819H45.9024C46.5841 58.5819 46.8522 58.319 46.8522 57.834C46.8522 57.349 46.5433 57.0978 45.9315 57.0978H44.8536V58.5819Z" fill="white"/>
      <path d="M50.9658 60.2002C51.0998 60.7845 51.5135 61.0357 52.1835 61.0357C52.8536 61.0357 53.1391 60.7728 53.1391 60.3462C53.1391 59.873 52.8594 59.6685 51.8689 59.4406C50.2957 59.0725 49.9053 58.494 49.9053 57.7111C49.9053 56.7002 50.657 56.0107 52.0262 56.0107C53.5645 56.0107 54.1763 56.8404 54.2578 57.6877H52.9993C52.941 57.3313 52.7429 56.9456 51.9971 56.9456C51.4902 56.9456 51.1814 57.156 51.1814 57.565C51.1814 57.974 51.4261 58.1317 52.3642 58.3479C54.0481 58.7453 54.4152 59.3705 54.4152 60.1885C54.4152 61.2461 53.6169 61.9764 52.0845 61.9764C50.5521 61.9764 49.8412 61.2519 49.7072 60.1943H50.9658V60.2002Z" fill="white"/>
      <path d="M61.5761 58.9848C61.5761 60.5975 60.6089 61.9881 58.7327 61.9881C56.8565 61.9881 55.965 60.6676 55.965 59.0024C55.965 57.3371 57.0138 56.0166 58.8084 56.0166C60.504 56.0166 61.5761 57.2027 61.5761 58.979V58.9848ZM57.2586 58.979C57.2586 60.1125 57.7538 60.9656 58.7793 60.9656C59.8922 60.9656 60.2884 60.0307 60.2884 58.9965C60.2884 57.898 59.8398 57.0391 58.7618 57.0391C57.6839 57.0391 57.2586 57.8513 57.2586 58.979Z" fill="white"/>
      <path d="M63.5106 61.9007V56.0986H65.0605C65.783 57.4016 67.1173 59.7505 67.3853 60.3815H67.4028C67.3387 59.7739 67.3387 58.7689 67.3387 57.8165V56.0986H68.4749V61.9007H67.0066C66.3831 60.7672 64.9031 58.0677 64.6176 57.3958H64.6002C64.6409 57.9041 64.6584 59.0961 64.6584 60.1361V61.9007H63.5164H63.5106Z" fill="white"/>
      <path d="M71.7669 60.5627L71.3183 61.9007H70.0889L72.0525 56.0986H73.6256L75.6766 61.9007H74.3598L73.882 60.5627H71.7669ZM73.614 59.5343C73.2061 58.3073 72.9439 57.5302 72.8041 57.0043H72.7983C72.6584 57.5769 72.3671 58.4884 72.035 59.5343H73.614Z" fill="white"/>
      <path d="M77.2556 56.1045H78.5084V60.8782H81.3867L81.2411 61.9066H77.2498V56.1045H77.2556Z" fill="white"/>
      <path d="M84.2185 56.1045V61.9066H82.9658V56.1045H84.2185Z" fill="white"/>
      <path d="M87.2484 60.2002C87.3824 60.7845 87.7961 61.0357 88.4661 61.0357C89.1362 61.0357 89.4217 60.7728 89.4217 60.3462C89.4217 59.873 89.142 59.6685 88.1515 59.4406C86.5783 59.0725 86.1879 58.494 86.1879 57.7111C86.1879 56.7002 86.9454 56.0107 88.3146 56.0107C89.8529 56.0107 90.4588 56.8404 90.5462 57.6877H89.2877C89.2294 57.3313 89.0313 56.9456 88.2855 56.9456C87.7786 56.9456 87.4698 57.156 87.4698 57.565C87.4698 57.974 87.7145 58.1317 88.6526 58.3479C90.3365 58.7453 90.7036 59.3705 90.7036 60.1885C90.7036 61.2461 89.9053 61.9764 88.3787 61.9764C86.8521 61.9764 86.1355 61.2519 85.9956 60.1943H87.2542L87.2484 60.2002Z" fill="white"/>
      <path d="M93.7101 56.1045V61.9066H92.4574V56.1045H93.7101Z" fill="white"/>
      <path d="M95.9301 61.9007V56.0986H97.48C98.2025 57.4016 99.5368 59.7505 99.8048 60.3815H99.8223C99.7582 59.7739 99.7582 58.7689 99.7582 57.8165V56.0986H100.894V61.9007H99.4261C98.8026 60.7672 97.3227 58.0677 97.0371 57.3958H97.0197C97.0605 57.9041 97.0779 59.0961 97.0779 60.1361V61.9007H95.9359H95.9301Z" fill="white"/>
      <path d="M108.137 61.9005H107.222C107.176 61.7193 107.141 61.5207 107.129 61.3279C106.808 61.7602 106.243 61.994 105.439 61.994C103.761 61.994 102.823 60.7202 102.823 59.0666C102.823 57.3254 103.837 56.0107 105.661 56.0107C107.146 56.0107 108.026 56.8521 108.166 57.8396H106.913C106.797 57.4481 106.488 56.9924 105.643 56.9924C104.454 56.9924 104.117 57.9915 104.117 59.0082C104.117 60.0249 104.507 60.989 105.649 60.989C106.721 60.989 106.913 60.2469 106.913 59.7269V59.6743H105.643V58.6459H108.137V61.8888V61.9005Z" fill="white"/>
      <path d="M113.119 56.1045H114.371V58.3657H116.696V56.1045H117.949V61.9066H116.696V59.3941H114.371V61.9066H113.119V56.1045Z" fill="white"/>
      <path d="M124.154 59.3999H121.387V60.8724H124.44L124.294 61.9007H120.175V56.0986H124.277V57.127H121.387V58.3716H124.154V59.3999Z" fill="white"/>
      <path d="M127.464 60.5627L127.015 61.9007H125.786L127.749 56.0986H129.323L131.374 61.9007H130.057L129.579 60.5627H127.464ZM129.311 59.5343C128.903 58.3073 128.641 57.5302 128.501 57.0043H128.495C128.35 57.5769 128.064 58.4884 127.732 59.5343H129.311Z" fill="white"/>
      <path d="M132.953 56.1045H134.205V60.8782H137.084L136.938 61.9066H132.947V56.1045H132.953Z" fill="white"/>
      <path d="M138.989 57.1329H137.229V56.1045H141.99V57.1329H140.236V61.9066H138.983V57.1329H138.989Z" fill="white"/>
      <path d="M143.61 56.1045H144.862V58.3657H147.187V56.1045H148.44V61.9066H147.187V59.3941H144.862V61.9066H143.61V56.1045Z" fill="white"/>
      <path d="M155.566 60.1125C155.333 61.1935 154.523 61.9823 153.072 61.9823C151.237 61.9823 150.369 60.6793 150.369 59.0316C150.369 57.3839 151.266 56.0166 153.13 56.0166C154.669 56.0166 155.414 56.9223 155.56 57.8922H154.307C154.185 57.4423 153.876 56.9982 153.09 56.9982C152.058 56.9982 151.662 57.9273 151.662 58.9848C151.662 59.9665 152.006 61.0007 153.125 61.0007C153.94 61.0007 154.197 60.4514 154.307 60.1125H155.566Z" fill="white"/>
      <path d="M158.456 60.5627L158.007 61.9007H156.778L158.741 56.0986H160.315L162.366 61.9007H161.049L160.571 60.5627H158.456ZM160.297 59.5343C159.889 58.3073 159.627 57.5302 159.487 57.0043H159.481C159.336 57.5769 159.05 58.4884 158.718 59.5343H160.297Z" fill="white"/>
      <path d="M165.162 59.5811V61.9007H163.939V56.0986H166.479C167.738 56.0986 168.42 56.7939 168.42 57.6938C168.42 58.4709 168 58.8916 167.58 59.0669C167.866 59.172 168.297 59.47 168.297 60.5101V60.7964C168.297 61.1879 168.297 61.6319 168.379 61.9007H167.196C167.091 61.6495 167.074 61.2171 167.074 60.5977V60.5159C167.074 59.879 166.916 59.5811 165.984 59.5811H165.162ZM165.162 58.5819H166.211C166.893 58.5819 167.161 58.319 167.161 57.834C167.161 57.349 166.852 57.0978 166.24 57.0978H165.162V58.5819Z" fill="white"/>
      <path d="M174.357 59.3999H171.589V60.8724H174.642L174.497 61.9007H170.377V56.0986H174.479V57.127H171.589V58.3716H174.357V59.3999Z" fill="white"/>
    </g>
  </g>
  <defs>
    <filter id="filter0_d_1_1787" x="-4.00023" y="-0.000976562" width="35.0126" height="35.3408" filterUnits="userSpaceOnUse" color-interpolation-filters="sRGB">
      <feFlood flood-opacity="0" result="BackgroundImageFix"/>
      <feColorMatrix in="SourceAlpha" type="matrix" values="0 0 0 0 0 0 0 0 0 0 0 0 0 0 0 0 0 0 127 0" result="hardAlpha"/>
      <feOffset dy="4"/>
      <feGaussianBlur stdDeviation="2"/>
      <feComposite in2="hardAlpha" operator="out"/>
      <feColorMatrix type="matrix" values="0 0 0 0 0 0 0 0 0 0 0 0 0 0 0 0 0 0 0.25 0"/>
      <feBlend mode="normal" in2="BackgroundImageFix" result="effect1_dropShadow_1_1787"/>
      <feBlend mode="normal" in="SourceGraphic" in2="effect1_dropShadow_1_1787" result="shape"/>
    </filter>
    <filter id="filter1_d_1_1787" x="11.3299" y="18.3525" width="19.4552" height="17.0156" filterUnits="userSpaceOnUse" color-interpolation-filters="sRGB">
      <feFlood flood-opacity="0" result="BackgroundImageFix"/>
      <feColorMatrix in="SourceAlpha" type="matrix" values="0 0 0 0 0 0 0 0 0 0 0 0 0 0 0 0 0 0 127 0" result="hardAlpha"/>
      <feOffset dy="4"/>
      <feGaussianBlur stdDeviation="2"/>
      <feComposite in2="hardAlpha" operator="out"/>
      <feColorMatrix type="matrix" values="0 0 0 0 0 0 0 0 0 0 0 0 0 0 0 0 0 0 0.25 0"/>
      <feBlend mode="normal" in2="BackgroundImageFix" result="effect1_dropShadow_1_1787"/>
      <feBlend mode="normal" in="SourceGraphic" in2="effect1_dropShadow_1_1787" result="shape"/>
    </filter>
    <filter id="filter2_d_1_1787" x="3.04436" y="6.7373" width="40.9557" height="41.0479" filterUnits="userSpaceOnUse" color-interpolation-filters="sRGB">
      <feFlood flood-opacity="0" result="BackgroundImageFix"/>
      <feColorMatrix in="SourceAlpha" type="matrix" values="0 0 0 0 0 0 0 0 0 0 0 0 0 0 0 0 0 0 127 0" result="hardAlpha"/>
      <feOffset dy="4"/>
      <feGaussianBlur stdDeviation="2"/>
      <feComposite in2="hardAlpha" operator="out"/>
      <feColorMatrix type="matrix" values="0 0 0 0 0 0 0 0 0 0 0 0 0 0 0 0 0 0 0.25 0"/>
      <feBlend mode="normal" in2="BackgroundImageFix" result="effect1_dropShadow_1_1787"/>
      <feBlend mode="normal" in="SourceGraphic" in2="effect1_dropShadow_1_1787" result="shape"/>
    </filter>
    <filter id="filter3_d_1_1787" x="27.3241" y="26.9893" width="152.676" height="28.9062" filterUnits="userSpaceOnUse" color-interpolation-filters="sRGB">
      <feFlood flood-opacity="0" result="BackgroundImageFix"/>
      <feColorMatrix in="SourceAlpha" type="matrix" values="0 0 0 0 0 0 0 0 0 0 0 0 0 0 0 0 0 0 127 0" result="hardAlpha"/>
      <feOffset dy="4"/>
      <feGaussianBlur stdDeviation="2"/>
      <feComposite in2="hardAlpha" operator="out"/>
      <feColorMatrix type="matrix" values="0 0 0 0 0 0 0 0 0 0 0 0 0 0 0 0 0 0 0.25 0"/>
      <feBlend mode="normal" in2="BackgroundImageFix" result="effect1_dropShadow_1_1787"/>
      <feBlend mode="normal" in="SourceGraphic" in2="effect1_dropShadow_1_1787" result="shape"/>
    </filter>
    <filter id="filter4_d_1_1787" x="27.3999" y="56.0107" width="151.243" height="13.9834" filterUnits="userSpaceOnUse" color-interpolation-filters="sRGB">
      <feFlood flood-opacity="0" result="BackgroundImageFix"/>
      <feColorMatrix in="SourceAlpha" type="matrix" values="0 0 0 0 0 0 0 0 0 0 0 0 0 0 0 0 0 0 127 0" result="hardAlpha"/>
      <feOffset dy="4"/>
      <feGaussianBlur stdDeviation="2"/>
      <feComposite in2="hardAlpha" operator="out"/>
      <feColorMatrix type="matrix" values="0 0 0 0 0 0 0 0 0 0 0 0 0 0 0 0 0 0 0.25 0"/>
      <feBlend mode="normal" in2="BackgroundImageFix" result="effect1_dropShadow_1_1787"/>
      <feBlend mode="normal" in="SourceGraphic" in2="effect1_dropShadow_1_1787" result="shape"/>
    </filter>
    <clipPath id="clip0_1_1787">
      <rect width="176" height="62" fill="white"/>
    </clipPath>
  </defs>
</svg>